<?xml version="1.0" encoding="UTF-8" standalone="no"?>
<!-- Created with Inkscape (http://www.inkscape.org/) -->

<svg
   width="1009.8425"
   height="233.85826"
   id="svg2"
   version="1.1"
   inkscape:version="1.2.2 (b0a8486541, 2022-12-01)"
   sodipodi:docname="selfcentering-howto.svg"
   xmlns:inkscape="http://www.inkscape.org/namespaces/inkscape"
   xmlns:sodipodi="http://sodipodi.sourceforge.net/DTD/sodipodi-0.dtd"
   xmlns="http://www.w3.org/2000/svg"
   xmlns:svg="http://www.w3.org/2000/svg"
   xmlns:rdf="http://www.w3.org/1999/02/22-rdf-syntax-ns#"
   xmlns:cc="http://creativecommons.org/ns#"
   xmlns:dc="http://purl.org/dc/elements/1.1/">
  <defs
     id="defs4" />
  <sodipodi:namedview
     id="base"
     pagecolor="#ffffff"
     bordercolor="#666666"
     borderopacity="1.0"
     inkscape:pageopacity="0.0"
     inkscape:pageshadow="2"
     inkscape:zoom="0.49497475"
     inkscape:cx="1064.7008"
     inkscape:cy="324.25896"
     inkscape:document-units="px"
     inkscape:current-layer="layer1"
     showgrid="true"
     inkscape:snap-global="false"
     inkscape:window-width="1411"
     inkscape:window-height="888"
     inkscape:window-x="184"
     inkscape:window-y="0"
     inkscape:window-maximized="0"
     units="mm"
     inkscape:showpageshadow="2"
     inkscape:pagecheckerboard="0"
     inkscape:deskcolor="#d1d1d1">
    <inkscape:grid
       type="xygrid"
       id="grid2985"
       empspacing="5"
       visible="true"
       enabled="true"
       snapvisiblegridlinesonly="true"
       spacingx="6.6437008"
       spacingy="6.6437008"
       units="mm"
       originx="0"
       originy="0" />
  </sodipodi:namedview>
  <metadata
     id="metadata7">
    <rdf:RDF>
      <cc:Work
         rdf:about="">
        <dc:format>image/svg+xml</dc:format>
        <dc:type
           rdf:resource="http://purl.org/dc/dcmitype/StillImage" />
        <dc:title />
      </cc:Work>
    </rdf:RDF>
  </metadata>
  <g
     inkscape:label="Ebene 1"
     inkscape:groupmode="layer"
     id="layer1"
     transform="translate(0,-818.50376)">
    <flowRoot
       xml:space="preserve"
       id="flowRoot4420"
       style="font-style:normal;font-variant:normal;font-weight:normal;font-stretch:normal;line-height:0.01%;font-family:Arial;-inkscape-font-specification:Sans;text-align:start;letter-spacing:0px;word-spacing:0px;text-anchor:start;fill:#000000;fill-opacity:1;stroke:none"><flowRegion
         id="flowRegion4422"><rect
           id="rect4424"
           width="327.14285"
           height="139.28572"
           x="22.857143"
           y="22.362181" /></flowRegion><flowPara
         id="flowPara4426"
         style="font-size:32px;line-height:1.25"> </flowPara></flowRoot>
    <g
       id="g4572"
       transform="translate(-8,540)">
      <path
         style="color:#000000;fill:#949494;fill-opacity:1;fill-rule:nonzero;stroke:none;stroke-width:7.08661413;marker:none;visibility:visible;display:inline;overflow:visible;enable-background:accumulate"
         d="m 49.872813,389.66947 c -1.732084,3.92023 4.324001,5.15961 6.629464,7.25447 2.319536,1.69872 6.032253,2.79375 7.544643,4.91071 -1.423951,2.76261 -6.168791,4.33226 -5.245536,7.92411 3.061701,2.81768 7.839708,0.20769 11.540179,0.35714 2.435779,0.11821 6.546001,-1.80017 7.916461,-0.248 0.417197,5.7462 0.294655,11.62217 1.034432,17.41318 2.785729,3.60796 6.055231,-1.80336 8.549107,-3.25893 1.988734,-2.04885 2.700485,2.48497 3.59375,3.54911 2.925517,5.3076 5.246469,11.41795 9.999997,15.35714 3.94,0.95316 6.50354,-4.15822 10,-4.50893 3.84438,4.32018 -0.29166,10.49213 0.75893,15.46875 2.82397,2.74771 6.9011,-0.78243 10.20089,-0.95982 1.60728,0.023 6.68688,-2.3659 5.80358,0.0223 -1.86514,4.82216 -4.6206,9.8104 -4.59822,15.06697 2.50135,3.54853 6.29562,-1.37724 8.93346,-2.31755 3.3325,-1.89967 6.52959,-4.59208 9.66029,-6.49942 4.11749,3.91375 7.07888,9.71168 12.67857,11.78572 4.08067,-0.99402 5.79615,-5.93403 8.86161,-8.54911 1.62994,-3.44885 3.3848,-0.13448 4.6875,1.58482 3.50081,4.29967 5.52675,10.07649 10.11161,13.32589 5.38203,0.55493 6.12858,-8.70129 11.51785,-7.9241 6.58469,4.89042 13.63483,9.65737 21.29465,12.72321 4.33449,0.33269 2.62455,-5.20464 2.00456,-7.70492 -0.16737,-2.11129 -1.62324,-4.6791 -1.15635,-6.60312 8.03842,-1.83875 15.79714,2.07625 23.63839,2.83483 5.25395,-0.93254 2.88115,-7.56333 2.87958,-11.12471 -0.25926,-3.3967 -0.62985,-6.76312 -0.62511,-10.14762 5.51526,1.9786 9.82701,6.2385 15.35714,7.83483 3.99249,-1.04454 1.98973,-6.60583 2.8125,-9.62054 0.42788,-5.02677 -0.18177,-10.74275 0.95982,-15.33482 6.66062,0.72539 13.0695,3.04807 19.0505,5.67584 3.40757,-2.77966 1.97571,-8.32147 2.36926,-12.37222 0.42358,-3.22121 -1.22253,-8.12317 0.42791,-10.24074 7.18416,-1.33465 14.43433,0.22686 21.56537,0.63572 3.70094,-1.9023 -0.96768,-6.3493 -1.54402,-9.15742 -0.5458,-2.34776 -3.19845,-5.63735 -1.82437,-7.75547 5.75801,-2.91125 12.55147,-3.64775 17.99107,-6.96428 0.29726,-4.99345 -6.65622,-2.10582 -9.68718,-2.8083 -14.70951,0.48626 -29.5593,-0.51188 -44.17443,1.29044 -11.61744,2.41553 -17.753,13.4717 -25.2079,21.42893 -11.41384,12.42761 -22.09241,25.73725 -34.27871,37.20946 -10.70168,9.01306 -28.00513,7.7579 -37.1875,-2.85714 -15.30198,-15.67127 -29.11113,-32.687 -44.04018,-48.79464 -8.67709,-9.27681 -22.317522,-7.76334 -33.839036,-8.12221 -12.040247,0.0563 -24.224698,-0.63415 -36.173279,-0.10825 l -0.65964,0.274 -0.131612,0.0547 z"
         id="path4416"
         inkscape:connector-curvature="0" />
      <g
         transform="matrix(-1,0,0,-1,369.65996,661.16674)"
         id="g4064">
        <g
           id="g4066">
          <path
             inkscape:connector-curvature="0"
             d="m 323.83358,270.25585 c -9.4863,0 -18.9726,0 -28.4589,0 -8.08934,0.0262 -16.17739,0.004 -24.26617,-0.0854 -2.02018,-0.0223 -2.05174,2.83465 -0.0316,2.85697 l 0,0 c 8.0993,0.0894 16.19786,0.11196 24.29773,0.0855 9.4863,0 18.9726,0 28.4589,0 2.02031,0 2.02031,-2.85714 0,-2.85714 z"
             id="path4068"
             style="color:#000000;fill:#000000;fill-opacity:1;fill-rule:nonzero;stroke:none;stroke-width:7.08661413;marker:none;visibility:visible;display:inline;overflow:visible;enable-background:accumulate" />
          <path
             inkscape:connector-curvature="0"
             d="m 202.99555,214.12522 c 4.24845,4.92935 8.63348,9.74945 13.01756,14.56022 9.20316,10.18155 18.66868,20.13803 27.42046,30.71564 0.87062,1.1653 1.74125,2.33061 2.61187,3.49592 1.20984,1.618 3.49804,-0.093 2.2882,-1.71097 l 0,0 c -0.89965,-1.20219 -1.79929,-2.40438 -2.69894,-3.60657 -8.7832,-10.61064 -18.27333,-20.60569 -27.50983,-30.81853 -4.28834,-4.70548 -8.55345,-9.43564 -12.75203,-14.22057 -1.12067,-1.68099 -3.49795,-0.0961 -2.37729,1.58486 z"
             id="path4070"
             style="color:#000000;fill:#000000;fill-opacity:1;fill-rule:nonzero;stroke:none;stroke-width:7.08661413;marker:none;visibility:visible;display:inline;overflow:visible;enable-background:accumulate" />
          <path
             inkscape:connector-curvature="0"
             d="m 205.03107,212.742 c -2.08421,-2.52816 -4.91679,-4.1795 -7.75099,-5.72756 -3.58083,-1.81473 -7.39415,-2.74141 -11.37627,-2.96794 -2.01734,-0.10945 -2.17212,2.7435 -0.15478,2.85295 l 0,0 c 3.55935,0.18232 6.95943,1.01807 10.16536,2.6246 2.4434,1.32427 4.85754,2.71393 6.73939,4.80281 1.12067,1.68099 3.49795,0.0961 2.37729,-1.58486 z"
             id="path4072"
             style="color:#000000;fill:#000000;fill-opacity:1;fill-rule:nonzero;stroke:none;stroke-width:7.08661413;marker:none;visibility:visible;display:inline;overflow:visible;enable-background:accumulate" />
          <path
             style="color:#000000;fill:#000000;fill-opacity:1;fill-rule:nonzero;stroke:none;stroke-width:7.08661413;marker:none;visibility:visible;display:inline;overflow:visible;enable-background:accumulate"
             id="path4074"
             d="m 247.69505,260.53692 c 1.82013,1.95853 3.76995,3.72123 5.93179,5.29274 5.68314,3.38609 12.32874,4.21978 18.82588,4.33462 2.01994,0.0386 1.9654,2.89519 -0.0545,2.85663 l 0,0 c -7.08686,-0.14467 -14.30182,-1.10957 -20.45692,-4.88428 -2.27267,-1.66814 -4.34958,-3.50972 -6.26651,-5.5794 -1.42858,-1.42857 0.59173,-3.44888 2.0203,-2.02031 z"
             inkscape:connector-curvature="0" />
        </g>
        <g
           transform="matrix(-1,0,0,1,369.65996,0)"
           id="g4076">
          <path
             style="color:#000000;fill:#000000;fill-opacity:1;fill-rule:nonzero;stroke:none;stroke-width:7.08661413;marker:none;visibility:visible;display:inline;overflow:visible;enable-background:accumulate"
             id="path4078"
             d="m 323.83358,270.25585 c -9.4863,0 -18.9726,0 -28.4589,0 -8.08934,0.0262 -16.17739,0.004 -24.26617,-0.0854 -2.02018,-0.0223 -2.05174,2.83465 -0.0316,2.85697 l 0,0 c 8.0993,0.0894 16.19786,0.11196 24.29773,0.0855 9.4863,0 18.9726,0 28.4589,0 2.02031,0 2.02031,-2.85714 0,-2.85714 z"
             inkscape:connector-curvature="0" />
          <path
             style="color:#000000;fill:#000000;fill-opacity:1;fill-rule:nonzero;stroke:none;stroke-width:7.08661413;marker:none;visibility:visible;display:inline;overflow:visible;enable-background:accumulate"
             id="path4080"
             d="m 202.99555,214.12522 c 4.24845,4.92935 8.63348,9.74945 13.01756,14.56022 9.20316,10.18155 18.66868,20.13803 27.42046,30.71564 0.87062,1.1653 1.74125,2.33061 2.61187,3.49592 1.20984,1.618 3.49804,-0.093 2.2882,-1.71097 l 0,0 c -0.89965,-1.20219 -1.79929,-2.40438 -2.69894,-3.60657 -8.7832,-10.61064 -18.27333,-20.60569 -27.50983,-30.81853 -4.28834,-4.70548 -8.55345,-9.43564 -12.75203,-14.22057 -1.12067,-1.68099 -3.49795,-0.0961 -2.37729,1.58486 z"
             inkscape:connector-curvature="0" />
          <path
             style="color:#000000;fill:#000000;fill-opacity:1;fill-rule:nonzero;stroke:none;stroke-width:7.08661413;marker:none;visibility:visible;display:inline;overflow:visible;enable-background:accumulate"
             id="path4082"
             d="m 205.03107,212.742 c -2.08421,-2.52816 -4.91679,-4.1795 -7.75099,-5.72756 -3.58083,-1.81473 -7.39415,-2.74141 -11.37627,-2.96794 -2.01734,-0.10945 -2.17212,2.7435 -0.15478,2.85295 l 0,0 c 3.55935,0.18232 6.95943,1.01807 10.16536,2.6246 2.4434,1.32427 4.85754,2.71393 6.73939,4.80281 1.12067,1.68099 3.49795,0.0961 2.37729,-1.58486 z"
             inkscape:connector-curvature="0" />
          <path
             inkscape:connector-curvature="0"
             d="m 247.69505,260.53692 c 1.82013,1.95853 3.76995,3.72123 5.93179,5.29274 5.68314,3.38609 12.32874,4.21978 18.82588,4.33462 2.01994,0.0386 1.9654,2.89519 -0.0545,2.85663 l 0,0 c -7.08686,-0.14467 -14.30182,-1.10957 -20.45692,-4.88428 -2.27267,-1.66814 -4.34958,-3.50972 -6.26651,-5.5794 -1.42858,-1.42857 0.59173,-3.44888 2.0203,-2.02031 z"
             id="path4084"
             style="color:#000000;fill:#000000;fill-opacity:1;fill-rule:nonzero;stroke:none;stroke-width:7.08661413;marker:none;visibility:visible;display:inline;overflow:visible;enable-background:accumulate" />
        </g>
      </g>
      <path
         inkscape:connector-curvature="0"
         id="path4493"
         d="m 221.36709,321.08458 c -4.10466,1.63091 -4.79328,7.07747 -7.04817,10.46632 -0.99001,1.61615 -1.26165,5.2159 -3.7554,3.19439 -5.99493,-2.95208 -12.39448,-6.29454 -19.0625,-6.71875 -4.3915,2.68337 -8.782,5.36837 -13.16965,8.05804 -4.13212,-1.95159 -6.68784,-5.74822 -8.41685,-9.73595 -3.0744,-1.93975 -5.84082,2.82052 -8.6144,3.91005 -3.95028,2.27434 -7.9513,6.05684 -12.56696,6.33929 -4.97351,-3.07064 -8.1491,-8.67906 -13.34822,-11.25 -3.84225,0.26232 -4.8741,5.40504 -7.51033,7.64287 -2.12514,2.03622 -3.37699,5.96657 -6.4852,6.55356 -4.689,-1.82575 -7.97289,-6.47387 -12.72322,-8.125 -3.75547,2.23082 -5.10995,7.26196 -8.10267,10.49107 -1.854794,2.1371 -3.172631,6.62006 -6.696432,4.28571 -5.433172,-1.29337 -10.054962,-5.00619 -15.401786,-6.16071 -3.149861,2.76645 -0.726568,8.42746 -2.901786,11.62946 -7.850645,0.77594 -16.251597,-0.86424 -24.151785,-0.84821 -2.239328,3.48253 2.86189,6.42439 3.90625,9.70982 1.721349,2.02656 0.597647,3.93902 -1.696429,4.77679 -2.355499,2.18619 -8.029432,2.87515 -7.209821,6.80803 4.294838,2.13865 9.763806,0.41017 14.508169,1.05492 14.267106,0.50226 28.69338,-0.42251 42.83558,1.3558 10.58275,2.4507 16.56292,12.23292 22.36607,20.51339 14.34693,19.40353 31.17037,36.78257 47.32143,54.59821 4.27924,5.22035 12.51964,8.14094 18.28125,3.52679 11.12517,-9.14988 19.83964,-20.89675 29.76151,-31.314 10.78193,-11.66801 20.55075,-24.20758 29.70278,-37.16814 6.08228,-8.65764 16.88939,-11.70978 27.00829,-11.24786 15.3175,-0.76041 30.74091,0.3745 46.0051,-0.85036 3.46976,-1.39909 0.66809,-5.07673 -1.71875,-5.80357 -2.67835,-2.03803 -6.84281,-3.10613 -8.77232,-5.58036 1.41061,-4.09934 5.41061,-7.72761 4.91071,-12.2991 -2.20003,-3.63925 -6.96773,-0.15428 -10.24091,-0.56622 -4.55166,0.14067 -9.60516,1.89075 -13.84391,-0.14807 -0.98192,-5.56603 -1.16493,-11.6879 -3.90625,-16.65179 -3.94999,0.003 -7.34783,3.25653 -11.33928,3.97322 -2.52432,0.86998 -5.48878,2.44394 -7.37269,-0.35325 -4.85189,-3.96768 -8.98328,-9.25867 -14.65856,-11.92354 -4.77248,2.78565 -7.87812,8.55131 -12.72322,10.95982 -5.52353,-6.31068 -13.53868,-9.80237 -21.20536,-12.90178 -0.63725,-0.15589 -1.30538,-0.33238 -1.96428,-0.20089 z"
         style="color:#000000;fill:#c8c8c8;fill-opacity:1;fill-rule:nonzero;stroke:none;stroke-width:7.08661413;marker:none;visibility:visible;display:inline;overflow:visible;enable-background:accumulate" />
      <g
         transform="matrix(-1,0,0,-1,369.65996,761.16674)"
         id="g4319">
        <g
           id="g4191">
          <g
             transform="translate(5.142857,-23.714286)"
             id="g4125">
            <path
               style="color:#000000;fill:#000000;fill-opacity:1;fill-rule:nonzero;stroke:none;stroke-width:7.08661413;marker:none;visibility:visible;display:inline;overflow:visible;enable-background:accumulate"
               id="path4100"
               d="m 35.39781,410.54156 c 9.4863,0 18.9726,0 28.4589,0 8.08934,0.0262 16.17739,0.004 24.26617,-0.0854 2.02018,-0.0223 2.05174,2.83465 0.0316,2.85697 l 0,0 c -8.0993,0.0894 -16.19786,0.11196 -24.29773,0.0855 -9.4863,0 -18.9726,0 -28.4589,0 -2.02031,0 -2.02031,-2.85714 0,-2.85714 z"
               inkscape:connector-curvature="0" />
            <path
               inkscape:connector-curvature="0"
               d="m 111.53634,400.82263 c -1.82013,1.95853 -3.76995,3.72123 -5.93179,5.29274 -5.68314,3.38609 -12.32874,4.21978 -18.82588,4.33462 -2.01994,0.0386 -1.9654,2.89519 0.0545,2.85663 l 0,0 c 7.08686,-0.14467 14.30182,-1.10957 20.45692,-4.88428 2.27267,-1.66814 4.34958,-3.50972 6.26651,-5.5794 1.42858,-1.42857 -0.59173,-3.44888 -2.0203,-2.02031 z"
               id="path4106"
               style="color:#000000;fill:#000000;fill-opacity:1;fill-rule:nonzero;stroke:none;stroke-width:7.08661413;marker:none;visibility:visible;display:inline;overflow:visible;enable-background:accumulate" />
          </g>
          <g
             transform="translate(20,-44)"
             id="g4161">
            <path
               style="color:#000000;fill:#000000;fill-opacity:1;fill-rule:nonzero;stroke:none;stroke-width:7.08661413;marker:none;visibility:visible;display:inline;overflow:visible;enable-background:accumulate"
               id="path4102"
               d="m 156.23584,354.41093 c -4.24845,4.92935 -8.63348,9.74945 -13.01756,14.56022 -9.20316,10.18155 -18.66868,20.13803 -27.42046,30.71564 -0.87062,1.1653 -1.74125,2.33061 -2.61187,3.49592 -1.20984,1.618 -3.49804,-0.093 -2.2882,-1.71097 l 0,0 c 0.89965,-1.20219 1.79929,-2.40438 2.69894,-3.60657 8.7832,-10.61064 18.27333,-20.60569 27.50983,-30.81853 4.28834,-4.70548 8.55345,-9.43564 12.75203,-14.22057 1.12067,-1.68099 3.49795,-0.0961 2.37729,1.58486 z"
               inkscape:connector-curvature="0" />
            <path
               style="color:#000000;fill:#000000;fill-opacity:1;fill-rule:nonzero;stroke:none;stroke-width:7.08661413;marker:none;visibility:visible;display:inline;overflow:visible;enable-background:accumulate"
               id="path4159"
               d="m 152.98524,354.15227 c 1.58856,-2.43987 3.18111,-3.44399 4.84697,-4.16333 1.6275,-0.70277 3.11288,-1.46951 5.12141,-1.43348 2.00853,0.036 2.10357,2.77509 0.47619,2.81718 -1.62738,0.0421 0.8477,-0.14006 0,0 -0.84769,0.14006 -2.84702,0.6074 -4.0881,1.29109 -1.46001,0.42549 -2.34369,1.22381 -4.08971,2.56031 -1.37388,2.21252 -3.64064,0.50941 -2.26676,-1.07177 z"
               inkscape:connector-curvature="0"
               sodipodi:nodetypes="cszzzccc" />
          </g>
          <path
             inkscape:connector-curvature="0"
             d="m 133.00314,359.42568 c -2.55468,2.90115 -4.69144,6.13464 -6.93967,9.27107 -2.37269,3.52239 -4.81691,6.99407 -7.31976,10.42481 -1.19078,1.63207 -3.49889,-0.0519 -2.3081,-1.68403 l 0,0 c 2.49853,-3.42403 4.93641,-6.89036 7.30572,-10.40541 2.30587,-3.21654 4.50039,-6.5299 7.12423,-9.50222 1.34052,-1.5115 3.47811,0.38428 2.13758,1.89578 z"
             id="path4189"
             style="color:#000000;fill:#000000;fill-opacity:1;fill-rule:nonzero;stroke:none;stroke-width:7.08661413;marker:none;visibility:visible;display:inline;overflow:visible;enable-background:accumulate" />
        </g>
        <g
           id="g4200"
           transform="matrix(-1,0,0,1,369.58908,0)">
          <g
             id="g4202"
             transform="translate(5.142857,-23.714286)">
            <path
               inkscape:connector-curvature="0"
               d="m 35.39781,410.54156 c 9.4863,0 18.9726,0 28.4589,0 8.08934,0.0262 16.17739,0.004 24.26617,-0.0854 2.02018,-0.0223 2.05174,2.83465 0.0316,2.85697 l 0,0 c -8.0993,0.0894 -16.19786,0.11196 -24.29773,0.0855 -9.4863,0 -18.9726,0 -28.4589,0 -2.02031,0 -2.02031,-2.85714 0,-2.85714 z"
               id="path4204"
               style="color:#000000;fill:#000000;fill-opacity:1;fill-rule:nonzero;stroke:none;stroke-width:7.08661413;marker:none;visibility:visible;display:inline;overflow:visible;enable-background:accumulate" />
            <path
               style="color:#000000;fill:#000000;fill-opacity:1;fill-rule:nonzero;stroke:none;stroke-width:7.08661413;marker:none;visibility:visible;display:inline;overflow:visible;enable-background:accumulate"
               id="path4206"
               d="m 111.53634,400.82263 c -1.82013,1.95853 -3.76995,3.72123 -5.93179,5.29274 -5.68314,3.38609 -12.32874,4.21978 -18.82588,4.33462 -2.01994,0.0386 -1.9654,2.89519 0.0545,2.85663 l 0,0 c 7.08686,-0.14467 14.30182,-1.10957 20.45692,-4.88428 2.27267,-1.66814 4.34958,-3.50972 6.26651,-5.5794 1.42858,-1.42857 -0.59173,-3.44888 -2.0203,-2.02031 z"
               inkscape:connector-curvature="0" />
          </g>
          <g
             id="g4208"
             transform="translate(20,-44)">
            <path
               inkscape:connector-curvature="0"
               d="m 156.23584,354.41093 c -4.24845,4.92935 -8.63348,9.74945 -13.01756,14.56022 -9.20316,10.18155 -18.66868,20.13803 -27.42046,30.71564 -0.87062,1.1653 -1.74125,2.33061 -2.61187,3.49592 -1.20984,1.618 -3.49804,-0.093 -2.2882,-1.71097 l 0,0 c 0.89965,-1.20219 1.79929,-2.40438 2.69894,-3.60657 8.7832,-10.61064 18.27333,-20.60569 27.50983,-30.81853 4.28834,-4.70548 8.55345,-9.43564 12.75203,-14.22057 1.12067,-1.68099 3.49795,-0.0961 2.37729,1.58486 z"
               id="path4210"
               style="color:#000000;fill:#000000;fill-opacity:1;fill-rule:nonzero;stroke:none;stroke-width:7.08661413;marker:none;visibility:visible;display:inline;overflow:visible;enable-background:accumulate" />
            <path
               sodipodi:nodetypes="cszzzccc"
               inkscape:connector-curvature="0"
               d="m 152.98524,354.15227 c 1.58856,-2.43987 3.18111,-3.44399 4.84697,-4.16333 1.6275,-0.70277 3.11288,-1.46951 5.12141,-1.43348 2.00853,0.036 2.10357,2.77509 0.47619,2.81718 -1.62738,0.0421 0.8477,-0.14006 0,0 -0.84769,0.14006 -2.84702,0.6074 -4.0881,1.29109 -1.46001,0.42549 -2.34369,1.22381 -4.08971,2.56031 -1.37388,2.21252 -3.64064,0.50941 -2.26676,-1.07177 z"
               id="path4212"
               style="color:#000000;fill:#000000;fill-opacity:1;fill-rule:nonzero;stroke:none;stroke-width:7.08661413;marker:none;visibility:visible;display:inline;overflow:visible;enable-background:accumulate" />
          </g>
          <path
             style="color:#000000;fill:#000000;fill-opacity:1;fill-rule:nonzero;stroke:none;stroke-width:7.08661413;marker:none;visibility:visible;display:inline;overflow:visible;enable-background:accumulate"
             id="path4214"
             d="m 133.00314,359.42568 c -2.55468,2.90115 -4.69144,6.13464 -6.93967,9.27107 -2.37269,3.52239 -4.81691,6.99407 -7.31976,10.42481 -1.19078,1.63207 -3.49889,-0.0519 -2.3081,-1.68403 l 0,0 c 2.49853,-3.42403 4.93641,-6.89036 7.30572,-10.40541 2.30587,-3.21654 4.50039,-6.5299 7.12423,-9.50222 1.34052,-1.5115 3.47811,0.38428 2.13758,1.89578 z"
             inkscape:connector-curvature="0" />
        </g>
      </g>
      <text
         id="text4364"
         y="383.79074"
         x="152.14285"
         style="font-style:normal;font-variant:normal;font-weight:bold;font-stretch:normal;line-height:0%;font-family:Arial;-inkscape-font-specification:'Sans Bold';text-align:start;letter-spacing:0px;word-spacing:0px;text-anchor:start;fill:#000000;fill-opacity:1;stroke:none"
         xml:space="preserve"><tspan
           style="font-weight:bold;font-size:28px;line-height:1.25;-inkscape-font-specification:'Sans Bold';fill:#e70000;fill-opacity:1"
           y="383.79074"
           x="152.14285"
           id="tspan4366"
           sodipodi:role="line">BAD</tspan></text>
      <g
         transform="translate(-2.85714,102.14286)"
         id="g4378">
        <path
           style="color:#000000;fill:#000000;fill-opacity:1;fill-rule:nonzero;stroke:none;stroke-width:7.08661413;marker:none;visibility:visible;display:inline;overflow:visible;enable-background:accumulate"
           id="path4372"
           d="m 208.16268,306.76505 c -1.2286,-2.54934 -3.55428,-4.59097 -6.02297,-5.91812 -0.94337,-0.50715 -1.95667,-0.87179 -2.93501,-1.30768 -7.13406,-2.26647 -14.74944,-1.85251 -21.73945,0.78205 -1.36161,0.5132 -2.64677,1.20995 -3.97016,1.81492 -4.27202,2.6518 -2.31167,1.245 -5.9226,4.16189 -1.57574,1.26439 -3.36386,-0.96404 -1.78812,-2.22843 l 0,0 c 3.99847,-3.18904 1.8356,-1.65748 6.53024,-4.53533 1.44097,-0.64922 2.84121,-1.39773 4.32291,-1.94767 6.23632,-2.31462 13.08725,-3.05959 19.64279,-1.796 1.39416,0.26873 2.735,0.76375 4.1025,1.14563 1.11379,0.51102 2.26886,0.94029 3.34137,1.53307 2.96575,1.63918 5.65686,4.13791 7.09129,7.23456 0.75033,1.8758 -1.90246,2.93692 -2.65279,1.06111 z"
           inkscape:connector-curvature="0" />
        <path
           style="color:#000000;fill:#000000;fill-opacity:1;fill-rule:nonzero;stroke:none;stroke-width:7.08661413;marker:none;visibility:visible;display:inline;overflow:visible;enable-background:accumulate"
           id="path4374"
           d="m 211.20171,305.95433 c 0.39878,-2.30752 0.2549,-4.64299 -0.0968,-6.94326 -0.13982,-0.73911 -0.15095,-0.84492 -0.3077,-1.52078 -0.0354,-0.15247 -0.0701,-0.30525 -0.11347,-0.45565 -0.01,-0.0339 -0.0725,-0.11832 -0.0454,-0.0957 0.34137,0.28552 0.55012,0.88721 0.99514,0.89003 0.61297,0.004 1.07885,-0.58228 1.61827,-0.87342 -0.0242,1.39963 -0.0274,2.80051 -0.0277,4.20077 -0.0426,1.7934 0.10509,3.59522 -0.0899,5.38055 -0.33671,2.2134 -1.60322,2.72338 -3.66163,2.93735 -2.89087,-0.0748 -5.76361,-0.46242 -8.65766,-0.43032 -1.39427,0.0753 -0.7553,0.0246 -1.918,0.13738 -2.01118,0.19175 -2.28235,-2.6525 -0.27117,-2.84424 l 0,0 c 1.32517,-0.12447 0.60406,-0.0696 2.1644,-0.15017 2.81456,-0.0184 5.61197,0.28413 8.42004,0.44228 0.22787,-0.0169 0.45544,-0.0388 0.68363,-0.0507 0.40593,-0.0212 0.13646,-0.038 0.13296,0.1995 -0.002,0.12747 0.65131,-0.96005 0.27116,-0.58579 0.23567,-1.65962 -0.0283,-3.36615 0.0691,-5.03641 3.3e-4,-1.62322 -0.0453,-3.25473 0.10782,-4.87204 0.57043,-0.41932 1.00838,-1.17351 1.7113,-1.25795 1.41664,-0.17019 1.5631,2.85373 1.74386,3.55782 0.39405,2.62862 0.54343,5.29809 0.0735,7.93105 -0.39621,1.98107 -3.19787,1.42074 -2.80166,-0.56033 z"
           inkscape:connector-curvature="0" />
        <path
           style="color:#000000;fill:#000000;fill-opacity:1;fill-rule:nonzero;stroke:none;stroke-width:7.08661413;marker:none;visibility:visible;display:inline;overflow:visible;enable-background:accumulate"
           id="path4376"
           d="m 175.74677,308.80456 c -2.44688,-0.10707 -4.87251,-0.43475 -7.32679,-0.43219 -2.1014,0.0589 -4.19978,0.19735 -6.29623,0.34936 -2.78048,0.25128 -2.39156,-1.69561 -1.70237,-3.51189 1.0643,-2.35237 1.91642,-4.78511 2.98495,-7.13663 0.10361,-0.2486 0.20721,-0.4972 0.31082,-0.7458 0.77877,-1.86417 3.41511,-0.76282 2.63634,1.10136 l 0,0 c -0.11545,0.27574 -0.23089,0.55148 -0.34633,0.82722 -1.04645,2.29909 -1.87447,4.68099 -2.91926,6.97998 -0.58818,1.50076 -0.052,0.61394 -0.83618,-0.014 -0.67687,-0.542 -1.6241,-0.21143 -0.33455,-0.34988 2.16633,-0.15701 4.33472,-0.30022 6.50631,-0.35684 2.45304,0.008 4.87974,0.29664 7.32329,0.43219 2.0203,0 2.0203,2.85714 0,2.85714 z"
           inkscape:connector-curvature="0" />
      </g>
    </g>
    <g
       id="g4537"
       transform="translate(312,720)">
      <path
         inkscape:connector-curvature="0"
         id="path4414"
         d="m 49.872813,205.66947 c -1.732084,3.92023 4.324001,5.15961 6.629464,7.25447 2.319536,1.69872 6.032253,2.79375 7.544643,4.91071 -1.423951,2.76261 -6.168791,4.33226 -5.245536,7.92411 3.061701,2.81768 7.839708,0.20769 11.540179,0.35714 2.435779,0.11821 6.546001,-1.80017 7.916461,-0.248 0.417197,5.7462 0.294655,11.62217 1.034432,17.41318 2.785729,3.60796 6.055231,-1.80336 8.549107,-3.25893 1.988734,-2.04885 2.700485,2.48497 3.59375,3.54911 2.925517,5.3076 5.246469,11.41795 9.999997,15.35714 3.94,0.95316 6.50354,-4.15822 10,-4.50893 3.84438,4.32018 -0.29166,10.49213 0.75893,15.46875 2.82397,2.74771 6.9011,-0.78243 10.20089,-0.95982 1.60728,0.023 6.68688,-2.3659 5.80358,0.0223 -1.86514,4.82216 -4.6206,9.8104 -4.59822,15.06697 2.50135,3.54853 6.29562,-1.37724 8.93346,-2.31755 3.3325,-1.89967 6.52959,-4.59208 9.66029,-6.49942 4.11749,3.91375 7.07888,9.71168 12.67857,11.78572 4.08067,-0.99402 5.79615,-5.93403 8.86161,-8.54911 1.62994,-3.44885 3.3848,-0.13448 4.6875,1.58482 3.50081,4.29967 5.52675,10.07649 10.11161,13.32589 5.38203,0.55493 6.12858,-8.70129 11.51785,-7.9241 6.58469,4.89042 13.63483,9.65737 21.29465,12.72321 4.33449,0.33269 2.62455,-5.20464 2.00456,-7.70492 -0.16737,-2.11129 -1.62324,-4.6791 -1.15635,-6.60312 8.03842,-1.83875 15.79714,2.07625 23.63839,2.83483 5.25395,-0.93254 2.88115,-7.56333 2.87958,-11.12471 -0.25926,-3.3967 -0.62985,-6.76312 -0.62511,-10.14762 5.51526,1.9786 9.82701,6.2385 15.35714,7.83483 3.99249,-1.04454 1.98973,-6.60583 2.8125,-9.62054 0.42788,-5.02677 -0.18177,-10.74275 0.95982,-15.33482 6.66062,0.72539 13.0695,3.04807 19.0505,5.67584 3.40757,-2.77966 1.97571,-8.32147 2.36926,-12.37222 0.42358,-3.22121 -1.22253,-8.12317 0.42791,-10.24074 7.18416,-1.33465 14.43433,0.22686 21.56537,0.63572 3.70094,-1.9023 -0.96768,-6.3493 -1.54402,-9.15742 -0.5458,-2.34776 -3.19845,-5.63735 -1.82437,-7.75547 5.75801,-2.91125 12.55147,-3.64775 17.99107,-6.96428 0.29726,-4.99345 -6.65622,-2.10582 -9.68718,-2.8083 -14.70951,0.48626 -29.5593,-0.51188 -44.17443,1.29044 -11.61744,2.41553 -17.753,13.4717 -25.2079,21.42893 -11.41384,12.42761 -22.09241,25.73725 -34.27871,37.20946 -10.70168,9.01306 -28.00513,7.7579 -37.1875,-2.85714 -15.30198,-15.67127 -29.11113,-32.687 -44.04018,-48.79464 -8.67709,-9.27681 -22.317522,-7.76334 -33.839036,-8.12221 -12.040247,0.0563 -24.224698,-0.63415 -36.173279,-0.10825 l -0.65964,0.274 -0.131612,0.0547 z"
         style="color:#000000;fill:#949494;fill-opacity:1;fill-rule:nonzero;stroke:none;stroke-width:7.08661413;marker:none;visibility:visible;display:inline;overflow:visible;enable-background:accumulate" />
      <g
         transform="matrix(-1,0,0,-1,369.65996,477.16674)"
         id="g4216">
        <g
           id="g4218">
          <path
             inkscape:connector-curvature="0"
             d="m 323.83358,270.25585 c -9.4863,0 -18.9726,0 -28.4589,0 -8.08934,0.0262 -16.17739,0.004 -24.26617,-0.0854 -2.02018,-0.0223 -2.05174,2.83465 -0.0316,2.85697 l 0,0 c 8.0993,0.0894 16.19786,0.11196 24.29773,0.0855 9.4863,0 18.9726,0 28.4589,0 2.02031,0 2.02031,-2.85714 0,-2.85714 z"
             id="path4220"
             style="color:#000000;fill:#000000;fill-opacity:1;fill-rule:nonzero;stroke:none;stroke-width:7.08661413;marker:none;visibility:visible;display:inline;overflow:visible;enable-background:accumulate" />
          <path
             inkscape:connector-curvature="0"
             d="m 202.99555,214.12522 c 4.24845,4.92935 8.63348,9.74945 13.01756,14.56022 9.20316,10.18155 18.66868,20.13803 27.42046,30.71564 0.87062,1.1653 1.74125,2.33061 2.61187,3.49592 1.20984,1.618 3.49804,-0.093 2.2882,-1.71097 l 0,0 c -0.89965,-1.20219 -1.79929,-2.40438 -2.69894,-3.60657 -8.7832,-10.61064 -18.27333,-20.60569 -27.50983,-30.81853 -4.28834,-4.70548 -8.55345,-9.43564 -12.75203,-14.22057 -1.12067,-1.68099 -3.49795,-0.0961 -2.37729,1.58486 z"
             id="path4222"
             style="color:#000000;fill:#000000;fill-opacity:1;fill-rule:nonzero;stroke:none;stroke-width:7.08661413;marker:none;visibility:visible;display:inline;overflow:visible;enable-background:accumulate" />
          <path
             inkscape:connector-curvature="0"
             d="m 205.03107,212.742 c -2.08421,-2.52816 -4.91679,-4.1795 -7.75099,-5.72756 -3.58083,-1.81473 -7.39415,-2.74141 -11.37627,-2.96794 -2.01734,-0.10945 -2.17212,2.7435 -0.15478,2.85295 l 0,0 c 3.55935,0.18232 6.95943,1.01807 10.16536,2.6246 2.4434,1.32427 4.85754,2.71393 6.73939,4.80281 1.12067,1.68099 3.49795,0.0961 2.37729,-1.58486 z"
             id="path4224"
             style="color:#000000;fill:#000000;fill-opacity:1;fill-rule:nonzero;stroke:none;stroke-width:7.08661413;marker:none;visibility:visible;display:inline;overflow:visible;enable-background:accumulate" />
          <path
             style="color:#000000;fill:#000000;fill-opacity:1;fill-rule:nonzero;stroke:none;stroke-width:7.08661413;marker:none;visibility:visible;display:inline;overflow:visible;enable-background:accumulate"
             id="path4226"
             d="m 247.69505,260.53692 c 1.82013,1.95853 3.76995,3.72123 5.93179,5.29274 5.68314,3.38609 12.32874,4.21978 18.82588,4.33462 2.01994,0.0386 1.9654,2.89519 -0.0545,2.85663 l 0,0 c -7.08686,-0.14467 -14.30182,-1.10957 -20.45692,-4.88428 -2.27267,-1.66814 -4.34958,-3.50972 -6.26651,-5.5794 -1.42858,-1.42857 0.59173,-3.44888 2.0203,-2.02031 z"
             inkscape:connector-curvature="0" />
        </g>
        <g
           transform="matrix(-1,0,0,1,369.65996,0)"
           id="g4228">
          <path
             style="color:#000000;fill:#000000;fill-opacity:1;fill-rule:nonzero;stroke:none;stroke-width:7.08661413;marker:none;visibility:visible;display:inline;overflow:visible;enable-background:accumulate"
             id="path4230"
             d="m 323.83358,270.25585 c -9.4863,0 -18.9726,0 -28.4589,0 -8.08934,0.0262 -16.17739,0.004 -24.26617,-0.0854 -2.02018,-0.0223 -2.05174,2.83465 -0.0316,2.85697 l 0,0 c 8.0993,0.0894 16.19786,0.11196 24.29773,0.0855 9.4863,0 18.9726,0 28.4589,0 2.02031,0 2.02031,-2.85714 0,-2.85714 z"
             inkscape:connector-curvature="0" />
          <path
             style="color:#000000;fill:#000000;fill-opacity:1;fill-rule:nonzero;stroke:none;stroke-width:7.08661413;marker:none;visibility:visible;display:inline;overflow:visible;enable-background:accumulate"
             id="path4232"
             d="m 202.99555,214.12522 c 4.24845,4.92935 8.63348,9.74945 13.01756,14.56022 9.20316,10.18155 18.66868,20.13803 27.42046,30.71564 0.87062,1.1653 1.74125,2.33061 2.61187,3.49592 1.20984,1.618 3.49804,-0.093 2.2882,-1.71097 l 0,0 c -0.89965,-1.20219 -1.79929,-2.40438 -2.69894,-3.60657 -8.7832,-10.61064 -18.27333,-20.60569 -27.50983,-30.81853 -4.28834,-4.70548 -8.55345,-9.43564 -12.75203,-14.22057 -1.12067,-1.68099 -3.49795,-0.0961 -2.37729,1.58486 z"
             inkscape:connector-curvature="0" />
          <path
             style="color:#000000;fill:#000000;fill-opacity:1;fill-rule:nonzero;stroke:none;stroke-width:7.08661413;marker:none;visibility:visible;display:inline;overflow:visible;enable-background:accumulate"
             id="path4234"
             d="m 205.03107,212.742 c -2.08421,-2.52816 -4.91679,-4.1795 -7.75099,-5.72756 -3.58083,-1.81473 -7.39415,-2.74141 -11.37627,-2.96794 -2.01734,-0.10945 -2.17212,2.7435 -0.15478,2.85295 l 0,0 c 3.55935,0.18232 6.95943,1.01807 10.16536,2.6246 2.4434,1.32427 4.85754,2.71393 6.73939,4.80281 1.12067,1.68099 3.49795,0.0961 2.37729,-1.58486 z"
             inkscape:connector-curvature="0" />
          <path
             inkscape:connector-curvature="0"
             d="m 247.69505,260.53692 c 1.82013,1.95853 3.76995,3.72123 5.93179,5.29274 5.68314,3.38609 12.32874,4.21978 18.82588,4.33462 2.01994,0.0386 1.9654,2.89519 -0.0545,2.85663 l 0,0 c -7.08686,-0.14467 -14.30182,-1.10957 -20.45692,-4.88428 -2.27267,-1.66814 -4.34958,-3.50972 -6.26651,-5.5794 -1.42858,-1.42857 0.59173,-3.44888 2.0203,-2.02031 z"
             id="path4236"
             style="color:#000000;fill:#000000;fill-opacity:1;fill-rule:nonzero;stroke:none;stroke-width:7.08661413;marker:none;visibility:visible;display:inline;overflow:visible;enable-background:accumulate" />
        </g>
      </g>
      <path
         inkscape:connector-curvature="0"
         id="path4436"
         d="m 182.48442,150.36515 c -6.83284,5.35489 -12.42496,12.46099 -19.30804,17.52232 -6.39318,-4.41716 -11.43953,-10.81011 -17.85714,-14.95536 -3.69297,2.24139 -3.82185,7.75354 -6.03474,11.32853 -1.84257,3.77789 -3.01888,8.39686 -4.81347,11.9304 -6.40492,-2.4628 -9.69572,-9.63485 -15.33482,-13.14732 -3.50809,1.81579 -4.38009,6.62115 -7.1875,9.41964 -2.6984,3.26252 -5.31786,8.1227 -8.48215,10.13393 -4.897108,-4.05734 -7.700825,-10.36074 -12.85714,-14.01785 -4.337543,-0.14076 -3.197372,5.78502 -3.705357,8.63839 -0.278706,1.52771 0.700934,5.86984 -2.209821,4.73214 -8.29308,-1.16759 -16.597311,-3.51202 -24.910715,-3.83928 -3.041427,2.94195 2.014652,6.0161 3.435429,8.46486 1.524816,1.90899 3.440023,3.6368 4.8235,5.59764 -5.496778,3.44523 -11.85627,6.05217 -16.540179,10.46875 0.768716,4.58731 7.234543,1.6753 10.489997,2.59107 17.243725,0.53445 34.640905,-0.0568 51.764466,1.71696 12.43835,2.99023 19.64542,14.46643 28.05804,23.0134 8.15731,8.22091 14.59763,19.05929 25.44643,23.99553 8.85375,3.2816 18.65233,1.65404 27.83482,1.60714 12.80833,-0.93276 20.42388,-12.72963 28.45982,-21.20535 8.06647,-8.44727 15.06181,-18.06852 24.70982,-24.86607 10.21806,-4.80971 22.12215,-3.08035 33.16958,-3.87143 11.46872,-0.34441 23.10598,0.0197 34.46763,-0.8207 3.90613,-3.32066 -3.74894,-5.2749 -5.9338,-6.92582 -2.1048,-1.89463 -7.8354,-2.48894 -6.07841,-6.48473 0.63251,-4.69046 2.75113,-9.0934 3.21429,-13.77233 -1.90018,-3.92582 -6.78049,-0.002 -9.84944,-0.11458 -3.07056,0.046 -6.87336,2.87035 -9.57021,0.76191 -3.85448,-5.34228 -5.09567,-12.37301 -9.21875,-17.43304 -4.3765,0.83749 -6.6867,5.9386 -10.3612,8.39192 -1.55533,1.92288 -3.55477,2.67274 -5.30844,0.49201 -8.61288,-6.65744 -17.3125,-13.65832 -26.94196,-18.88393 -3.7181,0.091 -4.29189,5.48789 -6.2123,8.09423 -1.31863,2.65592 -2.6451,5.33006 -4.3011,7.77631 -5.569,-3.01963 -9.91618,-7.90721 -15.49107,-10.78125 -3.03737,0.17614 -4.05197,4.08642 -6.71875,5.24553 -1.61481,1.40547 -3.53915,3.28103 -5.06696,0.64732 -4.86045,-3.90196 -8.71512,-9.47033 -14.53125,-11.94196 l -0.64692,0.30281 -0.40219,0.18826 z"
         style="color:#000000;fill:#c8c8c8;fill-opacity:1;fill-rule:nonzero;stroke:none;stroke-width:7.08661413;marker:none;visibility:visible;display:inline;overflow:visible;enable-background:accumulate" />
      <g
         transform="matrix(-1,0,0,-1,369.65996,681.16674)"
         id="g4304">
        <path
           inkscape:connector-curvature="0"
           d="m 177.225,423.90551 c 2.78617,0 5.57234,0 8.35851,0 2.43216,-0.0235 4.86293,-0.009 7.29445,0.0858 1.11599,0.0439 1.0817,2.90035 -0.0343,2.85647 l 0,0 c -2.42008,-0.0956 -4.83943,-0.10772 -7.26016,-0.0851 -2.78617,0 -5.57234,0 -8.35851,0 -1.11624,0 -1.11624,-2.85714 0,-2.85714 z"
           id="path4260"
           style="color:#000000;fill:#000000;fill-opacity:1;fill-rule:nonzero;stroke:none;stroke-width:7.08661413;marker:none;visibility:visible;display:inline;overflow:visible;enable-background:accumulate" />
        <g
           id="g4285">
          <path
             inkscape:connector-curvature="0"
             d="m 156.98603,432.742 c 2.08421,-2.52816 4.91679,-4.1795 7.75099,-5.72756 3.58083,-1.81473 7.39415,-2.74141 11.37627,-2.96794 2.01734,-0.10945 2.17212,2.7435 0.15478,2.85295 l 0,0 c -3.55935,0.18232 -6.95943,1.01807 -10.16536,2.6246 -2.4434,1.32427 -4.85754,2.71393 -6.73939,4.80281 -1.12067,1.68099 -3.49795,0.0961 -2.37729,-1.58486 z"
             id="path4256"
             style="color:#000000;fill:#000000;fill-opacity:1;fill-rule:nonzero;stroke:none;stroke-width:7.08661413;marker:none;visibility:visible;display:inline;overflow:visible;enable-background:accumulate" />
          <g
             transform="translate(0,-16)"
             id="g4277">
            <path
               style="color:#000000;fill:#000000;fill-opacity:1;fill-rule:nonzero;stroke:none;stroke-width:7.08661413;marker:none;visibility:visible;display:inline;overflow:visible;enable-background:accumulate"
               id="path4252"
               d="m 51.82638,490.25585 c 9.4863,0 18.9726,0 28.4589,0 8.08934,0.0262 16.17739,0.004 24.26617,-0.0854 2.02018,-0.0223 2.05174,2.83465 0.0316,2.85697 l 0,0 c -8.0993,0.0894 -16.19786,0.11196 -24.29773,0.0855 -9.4863,0 -18.9726,0 -28.4589,0 -2.02031,0 -2.02031,-2.85714 0,-2.85714 z"
               inkscape:connector-curvature="0" />
            <path
               inkscape:connector-curvature="0"
               d="m 127.96491,480.53692 c -1.82013,1.95853 -3.76995,3.72123 -5.93179,5.29274 -5.68314,3.38609 -12.32874,4.21978 -18.82588,4.33462 -2.01994,0.0386 -1.9654,2.89519 0.0545,2.85663 l 0,0 c 7.08686,-0.14467 14.30182,-1.10957 20.45692,-4.88428 2.27267,-1.66814 4.34958,-3.50972 6.26651,-5.5794 1.42858,-1.42857 -0.59173,-3.44888 -2.0203,-2.02031 z"
               id="path4258"
               style="color:#000000;fill:#000000;fill-opacity:1;fill-rule:nonzero;stroke:none;stroke-width:7.08661413;marker:none;visibility:visible;display:inline;overflow:visible;enable-background:accumulate" />
          </g>
          <path
             inkscape:connector-curvature="0"
             d="m 158.86049,434.9186 c -3.64411,3.51044 -6.8446,7.45863 -10.15316,11.27949 -6.19181,7.16472 -12.60981,14.12484 -19.11801,21.00144 -1.38874,1.46732 -3.46385,-0.49665 -2.07511,-1.96398 l 0,0 c 6.47938,-6.84588 12.86894,-13.77492 19.03322,-20.90777 3.33378,-3.84999 6.56056,-7.82705 10.23079,-11.36555 1.38336,-1.47239 3.46563,0.48398 2.08227,1.95637 z"
             id="path4283"
             style="color:#000000;fill:#000000;fill-opacity:1;fill-rule:nonzero;stroke:none;stroke-width:7.08661413;marker:none;visibility:visible;display:inline;overflow:visible;enable-background:accumulate" />
        </g>
        <g
           id="g4292"
           transform="matrix(-1,0,0,1,370.0171,0)">
          <path
             style="color:#000000;fill:#000000;fill-opacity:1;fill-rule:nonzero;stroke:none;stroke-width:7.08661413;marker:none;visibility:visible;display:inline;overflow:visible;enable-background:accumulate"
             id="path4294"
             d="m 156.98603,432.742 c 2.08421,-2.52816 4.91679,-4.1795 7.75099,-5.72756 3.58083,-1.81473 7.39415,-2.74141 11.37627,-2.96794 2.01734,-0.10945 2.17212,2.7435 0.15478,2.85295 l 0,0 c -3.55935,0.18232 -6.95943,1.01807 -10.16536,2.6246 -2.4434,1.32427 -4.85754,2.71393 -6.73939,4.80281 -1.12067,1.68099 -3.49795,0.0961 -2.37729,-1.58486 z"
             inkscape:connector-curvature="0" />
          <g
             id="g4296"
             transform="translate(0,-16)">
            <path
               inkscape:connector-curvature="0"
               d="m 51.82638,490.25585 c 9.4863,0 18.9726,0 28.4589,0 8.08934,0.0262 16.17739,0.004 24.26617,-0.0854 2.02018,-0.0223 2.05174,2.83465 0.0316,2.85697 l 0,0 c -8.0993,0.0894 -16.19786,0.11196 -24.29773,0.0855 -9.4863,0 -18.9726,0 -28.4589,0 -2.02031,0 -2.02031,-2.85714 0,-2.85714 z"
               id="path4298"
               style="color:#000000;fill:#000000;fill-opacity:1;fill-rule:nonzero;stroke:none;stroke-width:7.08661413;marker:none;visibility:visible;display:inline;overflow:visible;enable-background:accumulate" />
            <path
               style="color:#000000;fill:#000000;fill-opacity:1;fill-rule:nonzero;stroke:none;stroke-width:7.08661413;marker:none;visibility:visible;display:inline;overflow:visible;enable-background:accumulate"
               id="path4300"
               d="m 127.96491,480.53692 c -1.82013,1.95853 -3.76995,3.72123 -5.93179,5.29274 -5.68314,3.38609 -12.32874,4.21978 -18.82588,4.33462 -2.01994,0.0386 -1.9654,2.89519 0.0545,2.85663 l 0,0 c 7.08686,-0.14467 14.30182,-1.10957 20.45692,-4.88428 2.27267,-1.66814 4.34958,-3.50972 6.26651,-5.5794 1.42858,-1.42857 -0.59173,-3.44888 -2.0203,-2.02031 z"
               inkscape:connector-curvature="0" />
          </g>
          <path
             style="color:#000000;fill:#000000;fill-opacity:1;fill-rule:nonzero;stroke:none;stroke-width:7.08661413;marker:none;visibility:visible;display:inline;overflow:visible;enable-background:accumulate"
             id="path4302"
             d="m 158.86049,434.9186 c -3.64411,3.51044 -6.8446,7.45863 -10.15316,11.27949 -6.19181,7.16472 -12.60981,14.12484 -19.11801,21.00144 -1.38874,1.46732 -3.46385,-0.49665 -2.07511,-1.96398 l 0,0 c 6.47938,-6.84588 12.86894,-13.77492 19.03322,-20.90777 3.33378,-3.84999 6.56056,-7.82705 10.23079,-11.36555 1.38336,-1.47239 3.46563,0.48398 2.08227,1.95637 z"
             inkscape:connector-curvature="0" />
        </g>
      </g>
      <text
         xml:space="preserve"
         style="font-style:normal;font-variant:normal;font-weight:bold;font-stretch:normal;line-height:0%;font-family:Arial;-inkscape-font-specification:'Sans Bold';text-align:start;letter-spacing:0px;word-spacing:0px;text-anchor:start;fill:#000000;fill-opacity:1;stroke:none"
         x="154.28571"
         y="204.50499"
         id="text4368"><tspan
           sodipodi:role="line"
           id="tspan4370"
           x="154.28571"
           y="204.50499"
           style="font-weight:bold;font-size:28px;line-height:1.25;-inkscape-font-specification:'Sans Bold';fill:#e70000;fill-opacity:1">BAD</tspan></text>
      <g
         id="g4399">
        <path
           style="color:#000000;fill:#000000;fill-opacity:1;fill-rule:nonzero;stroke:none;stroke-width:7.08661413;marker:none;visibility:visible;display:inline;overflow:visible;enable-background:accumulate"
           id="path4393"
           d="m 163.99863,223.79075 c 6.55118,-0.5021 13.13283,-0.50282 19.69954,-0.58472 7.05666,-0.0191 14.11619,-0.26013 21.16815,0.0767 2.01798,0.0969 1.881,2.95072 -0.13698,2.85386 l 0,0 c -6.99427,-0.3374 -13.9966,-0.0878 -20.99555,-0.0737 -6.57901,0.082 -13.17108,0.0884 -19.73516,0.58495 -2.0203,0 -2.0203,-2.85715 0,-2.85715 z"
           inkscape:connector-curvature="0" />
        <path
           style="color:#000000;fill:#000000;fill-opacity:1;fill-rule:nonzero;stroke:none;stroke-width:7.08661413;marker:none;visibility:visible;display:inline;overflow:visible;enable-background:accumulate"
           id="path4395"
           d="m 200.47732,218.48727 c 2.17367,0.70493 4.17544,1.76426 6.11823,2.95117 1.29419,0.83767 3.28076,2.03678 2.80094,3.94936 -0.3126,1.246 -1.21693,1.64459 -2.14245,2.29124 -2.56773,1.39704 -5.49774,2.13424 -7.83247,3.94239 -1.61305,1.21643 -3.33334,-1.06476 -1.72029,-2.2812 l 0,0 c 2.42269,-1.79367 5.27304,-2.77161 7.9796,-4.04623 0.23701,-0.14034 0.43897,-0.37807 0.71105,-0.42101 0.0273,-0.004 0.28569,0.65526 0.4314,0.52227 0.28109,-0.25654 -1.59352,-1.44936 -1.72057,-1.52067 -1.97948,-1.21701 -4.04889,-2.17 -6.21029,-3.01003 -1.681,-1.12066 -0.0961,-3.49795 1.58485,-2.37729 z"
           inkscape:connector-curvature="0" />
        <path
           style="color:#000000;fill:#000000;fill-opacity:1;fill-rule:nonzero;stroke:none;stroke-width:7.08661413;marker:none;visibility:visible;display:inline;overflow:visible;enable-background:accumulate"
           id="path4397"
           d="m 170.42439,219.56274 c -2.42428,0.87672 -4.62429,2.18158 -6.71228,3.67448 -0.18423,0.2187 -1.64786,1.17199 -1.11703,1.78597 0.0781,0.0903 0.23497,0.0665 0.33025,0.13834 0.66026,0.49814 1.23922,1.09594 1.86964,1.63136 1.73259,1.26392 3.43729,2.56366 5.15909,3.84199 1.62192,1.20458 -0.0816,3.49832 -1.70353,2.29374 l 0,0 c -1.77477,-1.31851 -3.53616,-2.65342 -5.31505,-3.9665 -0.71418,-0.61701 -2.08327,-1.69583 -2.57291,-2.53745 -1.30763,-2.24761 -0.0911,-4.09595 1.69131,-5.51415 2.41478,-1.716 4.97329,-3.23658 7.81018,-4.14944 1.98107,-0.39622 2.5414,2.40544 0.56033,2.80166 z"
           inkscape:connector-curvature="0" />
      </g>
    </g>
    <g
       id="g4610"
       transform="translate(632,360)">
      <path
         inkscape:connector-curvature="0"
         id="path4418"
         d="m 49.872813,569.66947 c -1.732084,3.92023 4.324001,5.15961 6.629464,7.25447 2.319536,1.69872 6.032253,2.79375 7.544643,4.91071 -1.423951,2.76261 -6.168791,4.33226 -5.245536,7.92411 3.061701,2.81768 7.839708,0.20769 11.540179,0.35714 2.435779,0.11821 6.546001,-1.80017 7.916461,-0.248 0.417197,5.7462 0.294655,11.62217 1.034432,17.41318 2.785729,3.60796 6.055231,-1.80336 8.549107,-3.25893 1.988734,-2.04885 2.700485,2.48497 3.59375,3.54911 2.925517,5.3076 5.246469,11.41795 9.999997,15.35714 3.94,0.95316 6.50354,-4.15822 10,-4.50893 3.84438,4.32018 -0.29166,10.49213 0.75893,15.46875 2.82397,2.74771 6.9011,-0.78243 10.20089,-0.95982 1.60728,0.023 6.68688,-2.3659 5.80358,0.0223 -1.86514,4.82216 -4.6206,9.8104 -4.59822,15.06697 2.50135,3.54853 6.29562,-1.37724 8.93346,-2.31755 3.3325,-1.89967 6.52959,-4.59208 9.66029,-6.49942 4.11749,3.91375 7.07888,9.71168 12.67857,11.78572 4.08067,-0.99402 5.79615,-5.93403 8.86161,-8.54911 1.62994,-3.44885 3.3848,-0.13448 4.6875,1.58482 3.50081,4.29967 5.52675,10.07649 10.11161,13.32589 5.38203,0.55493 6.12858,-8.70129 11.51785,-7.9241 6.58469,4.89042 13.63483,9.65737 21.29465,12.72321 4.33449,0.33269 2.62455,-5.20464 2.00456,-7.70492 -0.16737,-2.11129 -1.62324,-4.6791 -1.15635,-6.60312 8.03842,-1.83875 15.79714,2.07625 23.63839,2.83483 5.25395,-0.93254 2.88115,-7.56333 2.87958,-11.12471 -0.25926,-3.3967 -0.62985,-6.76312 -0.62511,-10.14762 5.51526,1.9786 9.82701,6.2385 15.35714,7.83483 3.99249,-1.04454 1.98973,-6.60583 2.8125,-9.62054 0.42788,-5.02677 -0.18177,-10.74275 0.95982,-15.33482 6.66062,0.72539 13.0695,3.04807 19.0505,5.67584 3.40757,-2.77966 1.97571,-8.32147 2.36926,-12.37222 0.42358,-3.22121 -1.22253,-8.12317 0.42791,-10.24074 7.18416,-1.33465 14.43433,0.22686 21.56537,0.63572 3.70094,-1.9023 -0.96768,-6.3493 -1.54402,-9.15742 -0.5458,-2.34776 -3.19845,-5.63735 -1.82437,-7.75547 5.75801,-2.91125 12.55147,-3.64775 17.99107,-6.96428 0.29726,-4.99345 -6.65622,-2.10582 -9.68718,-2.8083 -14.70951,0.48626 -29.5593,-0.51188 -44.17443,1.29044 -11.61744,2.41553 -17.753,13.4717 -25.2079,21.42893 -11.41384,12.42761 -22.09241,25.73725 -34.27871,37.20946 -10.70168,9.01306 -28.00513,7.7579 -37.1875,-2.85714 -15.30198,-15.67127 -29.11113,-32.687 -44.04018,-48.79464 -8.67709,-9.27681 -22.317522,-7.76334 -33.839036,-8.12221 -12.040247,0.0563 -24.224698,-0.63415 -36.173279,-0.10825 l -0.65964,0.274 -0.131612,0.0547 z"
         style="color:#000000;fill:#949494;fill-opacity:1;fill-rule:nonzero;stroke:none;stroke-width:7.08661413;marker:none;visibility:visible;display:inline;overflow:visible;enable-background:accumulate" />
      <path
         inkscape:connector-curvature="0"
         id="path4518"
         d="m 254.33584,504.14089 c -8.07661,3.83904 -14.98437,9.81233 -22.83482,14.04017 -5.01193,-2.62875 -8.89275,-7.17298 -13.86161,-9.64285 -4.02297,2.73521 -4.31142,9.33422 -8.57143,11.96428 -6.79036,-2.86618 -11.83006,-9.67239 -19.35268,-10.9375 -7.13421,1.468 -12.48206,8.00727 -19.375,9.73215 -4.55235,-2.54607 -8.14379,-7.00239 -11.34174,-11.02682 -3.50956,-1.13772 -5.57692,3.96262 -8.6012,5.3216 -4.5415,3.31176 -9.07182,7.06468 -13.91867,9.56682 -4.29062,-3.51835 -5.59421,-9.34076 -9.08482,-13.32589 -4.48291,1.04344 -7.40655,5.55461 -11.16433,8.10615 -2.31381,1.4417 -4.69566,4.97877 -7.27317,5.01885 -5.44222,-3.43381 -9.960437,-8.12823 -14.464282,-12.45536 -4.209987,1.93303 -6.367921,6.9866 -9.481157,10.37784 -1.186508,1.4226 -2.060165,3.37888 -2.9742,4.82306 -4.863015,-1.55108 -8.901345,-4.82417 -13.354989,-7.04554 -4.243815,0.92282 -2.539324,6.79387 -3.280144,9.94677 -0.291988,2.10045 0.566629,6.37268 -2.829153,5.04519 -5.390895,-0.30811 -10.901536,-2.26368 -16.214568,-1.79452 -3.282128,2.12498 0.591202,6.26932 1.482425,8.87042 0.42424,1.38253 3.445439,3.41821 0.714286,4.10714 -4.485622,2.27781 -9.842055,2.88999 -13.90625,5.80357 -0.184633,4.9059 6.633812,2.15445 9.664382,2.9467 16.929967,0.52427 34.057433,-0.15809 50.826689,1.51759 7.529361,2.04073 13.291461,7.38748 17.736291,13.65285 12.93527,14.63607 25.66392,29.53055 39.38424,43.42304 6.45535,5.90133 15.25621,8.46214 23.90568,7.79536 11.25439,-0.44808 23.19266,1.4404 33.8845,-2.81768 11.27342,-6.18123 18.39353,-17.49277 27.20808,-26.48957 9.26815,-9.98625 17.95835,-20.49432 27.32317,-30.43007 8.16023,-7.47007 20.25959,-5.46356 30.42356,-6.19463 12.59946,-0.39198 25.3683,-3e-4 37.86098,-0.86357 3.98326,-3.41619 -3.93504,-5.14003 -6.21306,-6.65004 -3.46238,-1.89305 -7.70806,-3.36826 -10.5313,-5.88998 0.89615,-6.27477 4.21464,-12.48639 3.66072,-18.79464 -2.99699,-2.80148 -7.31242,0.71182 -10.69822,1.14618 -3.39191,0.79517 -7.1485,3.03609 -10.39553,2.84935 -5.32338,-4.98903 -9.29723,-11.70636 -15.49107,-15.84821 -4.11028,-0.10261 -5.11584,5.76457 -7.99108,8.10268 -0.94487,2.08919 -2.23455,1.15715 -2.99107,-0.53572 -4.75603,-5.35369 -10.32875,-10.70145 -17.03125,-13.41517 -0.27859,-0.0699 -0.56895,-0.0505 -0.84821,0 z"
         style="color:#000000;fill:#c8c8c8;fill-opacity:1;fill-rule:nonzero;stroke:none;stroke-width:7.08661413;marker:none;visibility:visible;display:inline;overflow:visible;enable-background:accumulate" />
      <g
         transform="matrix(-1,0,0,-1,369.65996,841.16674)"
         id="g4052">
        <g
           id="g3938">
          <path
             style="color:#000000;fill:#000000;fill-opacity:1;fill-rule:nonzero;stroke:none;stroke-width:7.08661413;marker:none;visibility:visible;display:inline;overflow:visible;enable-background:accumulate"
             id="path3862"
             d="m 323.83358,270.25585 c -9.4863,0 -18.9726,0 -28.4589,0 -8.08934,0.0262 -16.17739,0.004 -24.26617,-0.0854 -2.02018,-0.0223 -2.05174,2.83465 -0.0316,2.85697 l 0,0 c 8.0993,0.0894 16.19786,0.11196 24.29773,0.0855 9.4863,0 18.9726,0 28.4589,0 2.02031,0 2.02031,-2.85714 0,-2.85714 z"
             inkscape:connector-curvature="0" />
          <path
             style="color:#000000;fill:#000000;fill-opacity:1;fill-rule:nonzero;stroke:none;stroke-width:7.08661413;marker:none;visibility:visible;display:inline;overflow:visible;enable-background:accumulate"
             id="path3864"
             d="m 202.99555,214.12522 c 4.24845,4.92935 8.63348,9.74945 13.01756,14.56022 9.20316,10.18155 18.66868,20.13803 27.42046,30.71564 0.87062,1.1653 1.74125,2.33061 2.61187,3.49592 1.20984,1.618 3.49804,-0.093 2.2882,-1.71097 l 0,0 c -0.89965,-1.20219 -1.79929,-2.40438 -2.69894,-3.60657 -8.7832,-10.61064 -18.27333,-20.60569 -27.50983,-30.81853 -4.28834,-4.70548 -8.55345,-9.43564 -12.75203,-14.22057 -1.12067,-1.68099 -3.49795,-0.0961 -2.37729,1.58486 z"
             inkscape:connector-curvature="0" />
          <path
             style="color:#000000;fill:#000000;fill-opacity:1;fill-rule:nonzero;stroke:none;stroke-width:7.08661413;marker:none;visibility:visible;display:inline;overflow:visible;enable-background:accumulate"
             id="path3866"
             d="m 205.03107,212.742 c -2.08421,-2.52816 -4.91679,-4.1795 -7.75099,-5.72756 -3.58083,-1.81473 -7.39415,-2.74141 -11.37627,-2.96794 -2.01734,-0.10945 -2.17212,2.7435 -0.15478,2.85295 l 0,0 c 3.55935,0.18232 6.95943,1.01807 10.16536,2.6246 2.4434,1.32427 4.85754,2.71393 6.73939,4.80281 1.12067,1.68099 3.49795,0.0961 2.37729,-1.58486 z"
             inkscape:connector-curvature="0" />
          <path
             inkscape:connector-curvature="0"
             d="m 247.69505,260.53692 c 1.82013,1.95853 3.76995,3.72123 5.93179,5.29274 5.68314,3.38609 12.32874,4.21978 18.82588,4.33462 2.01994,0.0386 1.9654,2.89519 -0.0545,2.85663 l 0,0 c -7.08686,-0.14467 -14.30182,-1.10957 -20.45692,-4.88428 -2.27267,-1.66814 -4.34958,-3.50972 -6.26651,-5.5794 -1.42858,-1.42857 0.59173,-3.44888 2.0203,-2.02031 z"
             id="path3936"
             style="color:#000000;fill:#000000;fill-opacity:1;fill-rule:nonzero;stroke:none;stroke-width:7.08661413;marker:none;visibility:visible;display:inline;overflow:visible;enable-background:accumulate" />
        </g>
        <g
           id="g3949"
           transform="matrix(-1,0,0,1,369.65996,0)">
          <path
             inkscape:connector-curvature="0"
             d="m 323.83358,270.25585 c -9.4863,0 -18.9726,0 -28.4589,0 -8.08934,0.0262 -16.17739,0.004 -24.26617,-0.0854 -2.02018,-0.0223 -2.05174,2.83465 -0.0316,2.85697 l 0,0 c 8.0993,0.0894 16.19786,0.11196 24.29773,0.0855 9.4863,0 18.9726,0 28.4589,0 2.02031,0 2.02031,-2.85714 0,-2.85714 z"
             id="path3951"
             style="color:#000000;fill:#000000;fill-opacity:1;fill-rule:nonzero;stroke:none;stroke-width:7.08661413;marker:none;visibility:visible;display:inline;overflow:visible;enable-background:accumulate" />
          <path
             inkscape:connector-curvature="0"
             d="m 202.99555,214.12522 c 4.24845,4.92935 8.63348,9.74945 13.01756,14.56022 9.20316,10.18155 18.66868,20.13803 27.42046,30.71564 0.87062,1.1653 1.74125,2.33061 2.61187,3.49592 1.20984,1.618 3.49804,-0.093 2.2882,-1.71097 l 0,0 c -0.89965,-1.20219 -1.79929,-2.40438 -2.69894,-3.60657 -8.7832,-10.61064 -18.27333,-20.60569 -27.50983,-30.81853 -4.28834,-4.70548 -8.55345,-9.43564 -12.75203,-14.22057 -1.12067,-1.68099 -3.49795,-0.0961 -2.37729,1.58486 z"
             id="path3953"
             style="color:#000000;fill:#000000;fill-opacity:1;fill-rule:nonzero;stroke:none;stroke-width:7.08661413;marker:none;visibility:visible;display:inline;overflow:visible;enable-background:accumulate" />
          <path
             inkscape:connector-curvature="0"
             d="m 205.03107,212.742 c -2.08421,-2.52816 -4.91679,-4.1795 -7.75099,-5.72756 -3.58083,-1.81473 -7.39415,-2.74141 -11.37627,-2.96794 -2.01734,-0.10945 -2.17212,2.7435 -0.15478,2.85295 l 0,0 c 3.55935,0.18232 6.95943,1.01807 10.16536,2.6246 2.4434,1.32427 4.85754,2.71393 6.73939,4.80281 1.12067,1.68099 3.49795,0.0961 2.37729,-1.58486 z"
             id="path3955"
             style="color:#000000;fill:#000000;fill-opacity:1;fill-rule:nonzero;stroke:none;stroke-width:7.08661413;marker:none;visibility:visible;display:inline;overflow:visible;enable-background:accumulate" />
          <path
             style="color:#000000;fill:#000000;fill-opacity:1;fill-rule:nonzero;stroke:none;stroke-width:7.08661413;marker:none;visibility:visible;display:inline;overflow:visible;enable-background:accumulate"
             id="path3957"
             d="m 247.69505,260.53692 c 1.82013,1.95853 3.76995,3.72123 5.93179,5.29274 5.68314,3.38609 12.32874,4.21978 18.82588,4.33462 2.01994,0.0386 1.9654,2.89519 -0.0545,2.85663 l 0,0 c -7.08686,-0.14467 -14.30182,-1.10957 -20.45692,-4.88428 -2.27267,-1.66814 -4.34958,-3.50972 -6.26651,-5.5794 -1.42858,-1.42857 0.59173,-3.44888 2.0203,-2.02031 z"
             inkscape:connector-curvature="0" />
        </g>
      </g>
      <g
         transform="matrix(-1,0,0,-1,369.65996,841.16674)"
         id="g4039">
        <g
           id="g3963"
           transform="translate(14,16)">
          <path
             inkscape:connector-curvature="0"
             d="m 323.83358,270.25585 c -9.4863,0 -18.9726,0 -28.4589,0 -8.08934,0.0262 -16.17739,0.004 -24.26617,-0.0854 -2.02018,-0.0223 -2.05174,2.83465 -0.0316,2.85697 l 0,0 c 8.0993,0.0894 16.19786,0.11196 24.29773,0.0855 9.4863,0 18.9726,0 28.4589,0 2.02031,0 2.02031,-2.85714 0,-2.85714 z"
             id="path3965"
             style="color:#000000;fill:#000000;fill-opacity:1;fill-rule:nonzero;stroke:none;stroke-width:7.08661413;marker:none;visibility:visible;display:inline;overflow:visible;enable-background:accumulate" />
          <path
             inkscape:connector-curvature="0"
             d="m 202.99555,214.12522 c 4.24845,4.92935 8.63348,9.74945 13.01756,14.56022 9.20316,10.18155 18.66868,20.13803 27.42046,30.71564 0.87062,1.1653 1.74125,2.33061 2.61187,3.49592 1.20984,1.618 3.49804,-0.093 2.2882,-1.71097 l 0,0 c -0.89965,-1.20219 -1.79929,-2.40438 -2.69894,-3.60657 -8.7832,-10.61064 -18.27333,-20.60569 -27.50983,-30.81853 -4.28834,-4.70548 -8.55345,-9.43564 -12.75203,-14.22057 -1.12067,-1.68099 -3.49795,-0.0961 -2.37729,1.58486 z"
             id="path3967"
             style="color:#000000;fill:#000000;fill-opacity:1;fill-rule:nonzero;stroke:none;stroke-width:7.08661413;marker:none;visibility:visible;display:inline;overflow:visible;enable-background:accumulate" />
          <path
             inkscape:connector-curvature="0"
             d="m 205.03107,212.742 c -2.08421,-2.52816 -4.91679,-4.1795 -7.75099,-5.72756 -3.58083,-1.81473 -7.39415,-2.74141 -11.37627,-2.96794 -2.01734,-0.10945 -2.17212,2.7435 -0.15478,2.85295 l 0,0 c 3.55935,0.18232 6.95943,1.01807 10.16536,2.6246 2.4434,1.32427 4.85754,2.71393 6.73939,4.80281 1.12067,1.68099 3.49795,0.0961 2.37729,-1.58486 z"
             id="path3969"
             style="color:#000000;fill:#000000;fill-opacity:1;fill-rule:nonzero;stroke:none;stroke-width:7.08661413;marker:none;visibility:visible;display:inline;overflow:visible;enable-background:accumulate" />
          <path
             style="color:#000000;fill:#000000;fill-opacity:1;fill-rule:nonzero;stroke:none;stroke-width:7.08661413;marker:none;visibility:visible;display:inline;overflow:visible;enable-background:accumulate"
             id="path3971"
             d="m 247.69505,260.53692 c 1.82013,1.95853 3.76995,3.72123 5.93179,5.29274 5.68314,3.38609 12.32874,4.21978 18.82588,4.33462 2.01994,0.0386 1.9654,2.89519 -0.0545,2.85663 l 0,0 c -7.08686,-0.14467 -14.30182,-1.10957 -20.45692,-4.88428 -2.27267,-1.66814 -4.34958,-3.50972 -6.26651,-5.5794 -1.42858,-1.42857 0.59173,-3.44888 2.0203,-2.02031 z"
             inkscape:connector-curvature="0" />
        </g>
        <g
           transform="matrix(-1,0,0,1,355.65996,16)"
           id="g3973">
          <path
             style="color:#000000;fill:#000000;fill-opacity:1;fill-rule:nonzero;stroke:none;stroke-width:7.08661413;marker:none;visibility:visible;display:inline;overflow:visible;enable-background:accumulate"
             id="path3975"
             d="m 323.83358,270.25585 c -9.4863,0 -18.9726,0 -28.4589,0 -8.08934,0.0262 -16.17739,0.004 -24.26617,-0.0854 -2.02018,-0.0223 -2.05174,2.83465 -0.0316,2.85697 l 0,0 c 8.0993,0.0894 16.19786,0.11196 24.29773,0.0855 9.4863,0 18.9726,0 28.4589,0 2.02031,0 2.02031,-2.85714 0,-2.85714 z"
             inkscape:connector-curvature="0" />
          <path
             style="color:#000000;fill:#000000;fill-opacity:1;fill-rule:nonzero;stroke:none;stroke-width:7.08661413;marker:none;visibility:visible;display:inline;overflow:visible;enable-background:accumulate"
             id="path3977"
             d="m 202.99555,214.12522 c 4.24845,4.92935 8.63348,9.74945 13.01756,14.56022 9.20316,10.18155 18.66868,20.13803 27.42046,30.71564 0.87062,1.1653 1.74125,2.33061 2.61187,3.49592 1.20984,1.618 3.49804,-0.093 2.2882,-1.71097 l 0,0 c -0.89965,-1.20219 -1.79929,-2.40438 -2.69894,-3.60657 -8.7832,-10.61064 -18.27333,-20.60569 -27.50983,-30.81853 -4.28834,-4.70548 -8.55345,-9.43564 -12.75203,-14.22057 -1.12067,-1.68099 -3.49795,-0.0961 -2.37729,1.58486 z"
             inkscape:connector-curvature="0" />
          <path
             style="color:#000000;fill:#000000;fill-opacity:1;fill-rule:nonzero;stroke:none;stroke-width:7.08661413;marker:none;visibility:visible;display:inline;overflow:visible;enable-background:accumulate"
             id="path3979"
             d="m 205.03107,212.742 c -2.08421,-2.52816 -4.91679,-4.1795 -7.75099,-5.72756 -3.58083,-1.81473 -7.39415,-2.74141 -11.37627,-2.96794 -2.01734,-0.10945 -2.17212,2.7435 -0.15478,2.85295 l 0,0 c 3.55935,0.18232 6.95943,1.01807 10.16536,2.6246 2.4434,1.32427 4.85754,2.71393 6.73939,4.80281 1.12067,1.68099 3.49795,0.0961 2.37729,-1.58486 z"
             inkscape:connector-curvature="0" />
          <path
             inkscape:connector-curvature="0"
             d="m 247.69505,260.53692 c 1.82013,1.95853 3.76995,3.72123 5.93179,5.29274 5.68314,3.38609 12.32874,4.21978 18.82588,4.33462 2.01994,0.0386 1.9654,2.89519 -0.0545,2.85663 l 0,0 c -7.08686,-0.14467 -14.30182,-1.10957 -20.45692,-4.88428 -2.27267,-1.66814 -4.34958,-3.50972 -6.26651,-5.5794 -1.42858,-1.42857 0.59173,-3.44888 2.0203,-2.02031 z"
             id="path3981"
             style="color:#000000;fill:#000000;fill-opacity:1;fill-rule:nonzero;stroke:none;stroke-width:7.08661413;marker:none;visibility:visible;display:inline;overflow:visible;enable-background:accumulate" />
        </g>
        <path
           style="color:#000000;fill:#000000;fill-opacity:1;fill-rule:nonzero;stroke:none;stroke-width:7.08661413;marker:none;visibility:visible;display:inline;overflow:visible;enable-background:accumulate"
           id="path4037"
           d="m 169.01683,219.86218 c 5.3876,0 10.7752,0 16.16282,0 4.70305,-0.0235 9.40341,-0.009 14.10524,0.0858 2.15799,0.0439 2.09167,2.90035 -0.0663,2.85647 l 0,0 c -4.67971,-0.0956 -9.358,-0.10772 -14.03894,-0.0851 -5.38761,0 -10.77521,0 -16.16281,0 -2.15848,0 -2.15848,-2.85714 0,-2.85714 z"
           inkscape:connector-curvature="0" />
      </g>
      <text
         id="text4356"
         y="559.79077"
         x="142.57141"
         style="font-style:normal;font-variant:normal;font-weight:bold;font-stretch:normal;line-height:0%;font-family:Arial;-inkscape-font-specification:'Sans Bold';text-align:start;letter-spacing:0px;word-spacing:0px;text-anchor:start;fill:#000000;fill-opacity:1;stroke:none"
         xml:space="preserve"><tspan
           style="font-weight:bold;font-size:28px;line-height:1.25;-inkscape-font-specification:'Sans Bold';fill:#00a000;fill-opacity:1"
           y="559.79077"
           x="142.57141"
           id="tspan4358"
           sodipodi:role="line">GOOD</tspan></text>
      <g
         transform="translate(4,106)"
         style="color:#000000;fill:#005300;fill-opacity:1;fill-rule:nonzero;stroke:none;marker:none;visibility:visible;display:inline;overflow:visible;enable-background:accumulate"
         id="g4460">
        <path
           style="color:#000000;fill:#005300;fill-opacity:1;fill-rule:nonzero;stroke:none;stroke-width:7.08661413;marker:none;visibility:visible;display:inline;overflow:visible;enable-background:accumulate"
           id="path4438"
           d="m 185.74033,467.94837 c -2.80265,-0.46702 -5.62295,-0.76418 -8.46256,-0.85138 -3.56378,0.11444 -7.24342,1.00486 -9.4496,4.06781 -0.41202,0.57202 -0.67072,1.24016 -1.00608,1.86024 -1.01083,3.27328 -0.75411,6.83091 1.23279,9.73038 1.52268,2.22203 2.62584,2.66473 4.83343,4.18464 1.15228,0.44588 2.26447,1.01391 3.45685,1.33764 4.88586,1.3265 10.47966,0.81986 14.56505,-2.38736 0.87822,-0.68945 1.54339,-1.61381 2.31508,-2.42072 0.46871,-0.95249 1.09225,-1.84337 1.40613,-2.85748 0.91526,-2.95712 0.2327,-5.91571 -1.85179,-8.18623 -1.87391,-2.04116 -2.858,-2.17896 -5.33974,-3.30714 -4.32144,-0.97222 -2.14703,-0.67661 -6.52152,-0.89928 -2.01698,-0.11593 -1.85303,-2.96837 0.16395,-2.85243 l 0,0 c 5.06293,0.31996 2.53449,-0.0594 7.58054,1.16954 2.99199,1.46388 4.34923,1.72917 6.5356,4.3686 2.60148,3.14056 3.32217,7.16687 1.97052,11.01998 -0.44494,1.26837 -1.27339,2.36758 -1.91008,3.55136 -0.97647,0.9645 -1.82983,2.0721 -2.9294,2.89349 -4.83477,3.61164 -11.36562,4.21455 -17.04362,2.5612 -1.3993,-0.40746 -2.69729,-1.10498 -4.04593,-1.65746 -2.73783,-1.97514 -3.91853,-2.42512 -5.76832,-5.29766 -1.76997,-2.74859 -2.45821,-6.27944 -1.95155,-9.49638 0.15466,-0.982 0.54583,-1.91182 0.81874,-2.86773 0.47979,-0.81246 0.8641,-1.68949 1.43937,-2.43739 2.78998,-3.62724 7.2269,-4.82149 11.59127,-4.93329 3.04049,0.10154 6.06686,0.40556 9.06383,0.93522 1.95998,0.48999 1.26702,3.26183 -0.69296,2.77183 z"
           inkscape:connector-curvature="0" />
        <path
           style="color:#000000;fill:#005300;fill-opacity:1;fill-rule:nonzero;stroke:none;stroke-width:7.08661413;marker:none;visibility:visible;display:inline;overflow:visible;enable-background:accumulate"
           id="path4450"
           d="m 175.75707,480.92889 c 1.93064,1.23145 4.25417,1.18307 6.44181,1.00272 1.86278,-0.25454 3.52219,-1.06444 5.18757,-1.87649 1.81913,-0.87886 3.06202,1.69378 1.24289,2.57264 l 0,0 c -1.99698,0.95701 -3.99023,1.88952 -6.22315,2.15346 -2.91161,0.18924 -6.70264,0.2768 -8.84666,-2.1521 -0.25577,-0.28976 -0.38286,-0.67151 -0.57429,-1.00727 -0.49,-1.95998 2.28184,-2.65294 2.77183,-0.69296 z"
           inkscape:connector-curvature="0" />
        <path
           style="color:#000000;fill:#005300;fill-opacity:1;fill-rule:nonzero;stroke:none;stroke-width:7.08661413;marker:none;visibility:visible;display:inline;overflow:visible;enable-background:accumulate"
           id="path4454"
           d="m 183.55605,473.07647 c 0.18049,0.0799 0.98775,-0.0618 0.87095,-0.40691 -0.0181,-0.0535 -0.0927,0.0645 -0.13901,0.0967 -0.24748,0.48002 0.21712,1.4207 0.75696,1.30012 -1.53483,1.31375 -3.39275,-0.85683 -1.85792,-2.17058 l 0,0 c 1.72885,-1.23066 3.88118,-0.92112 3.85406,1.63446 -0.67365,1.67284 -1.60634,2.44725 -3.48504,2.40336 -2.02031,0 -2.02031,-2.85714 0,-2.85714 z"
           inkscape:connector-curvature="0" />
        <path
           style="color:#000000;fill:#005300;fill-opacity:1;fill-rule:nonzero;stroke:none;stroke-width:7.08661413;marker:none;visibility:visible;display:inline;overflow:visible;enable-background:accumulate"
           id="path4458"
           d="m 176.81175,474.37694 c -1.21885,0.0218 -0.50969,0.30838 0.01,-0.56085 0.10122,-0.16937 0.0582,-0.39029 0.0873,-0.58544 0.62782,0.73091 1.24409,-0.0331 -1.12076,0.80476 -0.16631,0.38063 -0.48627,0.17147 -0.62402,0.12278 0.52146,0.25654 1.1728,-0.12143 1.39271,-0.52996 0.0207,-0.0385 -0.009,-0.13356 0.034,-0.12678 0.0556,0.009 0.0572,0.0971 0.0858,0.14557 0.007,-0.0183 0.0149,-0.0366 0.0224,-0.0549 0.0373,0.0246 0.0747,0.0492 0.11202,0.0738 1.5589,1.28509 -0.2585,3.48971 -1.8174,2.20461 l 0,0 c -0.59422,-0.51708 -0.29428,-0.21208 -0.87093,-0.94252 -0.60431,-1.27276 -0.68895,-2.78041 0.88912,-3.46417 0.31436,-0.13621 0.68499,-0.0169 1.02749,-0.0254 1.68134,0.6856 2.81697,2.04196 2.27021,3.94068 -0.56448,0.3022 -1.07531,0.73965 -1.69345,0.90658 -0.70433,0.19021 -2.15089,-1.517 -2.37165,-2.02341 -0.0556,-0.414 -0.27264,-0.83788 -0.16694,-1.24201 0.41818,-1.59897 2.16643,-1.56852 3.42726,-1.41514 1.95999,0.48999 1.26703,3.26183 -0.69296,2.77183 z"
           inkscape:connector-curvature="0" />
      </g>
    </g>
  </g>
</svg>
