<?xml version="1.0" encoding="UTF-8" standalone="no"?>
<!-- Created with Inkscape (http://www.inkscape.org/) -->

<svg
   width="1009.8425"
   height="233.85826"
   id="svg2"
   version="1.1"
   inkscape:version="1.2.2 (b0a8486541, 2022-12-01)"
   sodipodi:docname="selfcentering-and-bending-moment.svg"
   xmlns:inkscape="http://www.inkscape.org/namespaces/inkscape"
   xmlns:sodipodi="http://sodipodi.sourceforge.net/DTD/sodipodi-0.dtd"
   xmlns="http://www.w3.org/2000/svg"
   xmlns:svg="http://www.w3.org/2000/svg"
   xmlns:rdf="http://www.w3.org/1999/02/22-rdf-syntax-ns#"
   xmlns:cc="http://creativecommons.org/ns#"
   xmlns:dc="http://purl.org/dc/elements/1.1/">
  <defs
     id="defs4" />
  <sodipodi:namedview
     id="base"
     pagecolor="#ffffff"
     bordercolor="#666666"
     borderopacity="1.0"
     inkscape:pageopacity="0.0"
     inkscape:pageshadow="2"
     inkscape:zoom="0.98994949"
     inkscape:cx="399.01026"
     inkscape:cy="54.043161"
     inkscape:document-units="px"
     inkscape:current-layer="layer1"
     showgrid="true"
     inkscape:snap-global="false"
     inkscape:window-width="1411"
     inkscape:window-height="888"
     inkscape:window-x="184"
     inkscape:window-y="0"
     inkscape:window-maximized="0"
     units="mm"
     inkscape:showpageshadow="2"
     inkscape:pagecheckerboard="0"
     inkscape:deskcolor="#d1d1d1">
    <inkscape:grid
       type="xygrid"
       id="grid2985"
       empspacing="5"
       visible="true"
       enabled="true"
       snapvisiblegridlinesonly="true"
       spacingx="6.6437008"
       spacingy="6.6437008"
       units="mm"
       originx="0"
       originy="0" />
  </sodipodi:namedview>
  <metadata
     id="metadata7">
    <rdf:RDF>
      <cc:Work
         rdf:about="">
        <dc:format>image/svg+xml</dc:format>
        <dc:type
           rdf:resource="http://purl.org/dc/dcmitype/StillImage" />
        <dc:title />
      </cc:Work>
    </rdf:RDF>
  </metadata>
  <g
     inkscape:label="Ebene 1"
     inkscape:groupmode="layer"
     id="layer1"
     transform="translate(0,-818.50376)">
    <flowRoot
       xml:space="preserve"
       id="flowRoot4420"
       style="font-style:normal;font-variant:normal;font-weight:normal;font-stretch:normal;line-height:0.01%;font-family:Arial;-inkscape-font-specification:Sans;text-align:start;letter-spacing:0px;word-spacing:0px;text-anchor:start;fill:#000000;fill-opacity:1;stroke:none"><flowRegion
         id="flowRegion4422"><rect
           id="rect4424"
           width="327.14285"
           height="139.28572"
           x="22.857143"
           y="22.362181" /></flowRegion><flowPara
         id="flowPara4426"
         style="font-size:32px;line-height:1.25"> </flowPara></flowRoot>
    <path
       style="color:#000000;fill:#949494;fill-opacity:1;fill-rule:nonzero;stroke:none;stroke-width:7.08661413;marker:none;visibility:visible;display:inline;overflow:visible;enable-background:accumulate"
       d="m 758.33584,1046.0297 c -8.07661,-3.839 -14.98437,-9.8123 -22.83482,-14.0402 -5.01193,2.6288 -8.89275,7.173 -13.86161,9.6429 -4.02297,-2.7352 -4.31142,-9.3342 -8.57143,-11.9643 -6.79036,2.8662 -11.83006,9.6724 -19.35268,10.9375 -7.13421,-1.468 -12.48206,-8.0073 -19.375,-9.7321 -4.55235,2.546 -8.14379,7.0023 -11.34174,11.0268 -3.50956,1.1377 -5.57692,-3.9626 -8.6012,-5.3216 -4.5415,-3.3118 -9.07182,-7.0647 -13.91867,-9.5668 -4.29062,3.5183 -5.59421,9.3407 -9.08482,13.3258 -4.48291,-1.0434 -7.40655,-5.5546 -11.16433,-8.1061 -2.31381,-1.4417 -4.69566,-4.9788 -7.27317,-5.0189 -5.44222,3.4339 -9.96044,8.1283 -14.46428,12.4554 -4.20999,-1.933 -6.36792,-6.9866 -9.48115,-10.3778 -1.18651,-1.4226 -2.06017,-3.3789 -2.9742,-4.8231 -4.86302,1.5511 -8.90135,4.8242 -13.35499,7.0455 -4.24382,-0.9228 -2.53933,-6.7938 -3.28015,-9.9467 -0.29199,-2.1005 0.56663,-6.3727 -2.82915,-5.0452 -5.3909,0.3081 -10.90154,2.2637 -16.21457,1.7945 -3.28213,-2.125 0.5912,-6.2693 1.48243,-8.8704 0.42424,-1.3825 3.44544,-3.4182 0.71428,-4.1071 -4.48562,-2.2779 -9.84205,-2.89 -13.90625,-5.8036 -0.18463,-4.9059 6.63381,-2.1545 9.66438,-2.9467 16.92997,-0.5243 34.05744,0.1581 50.82669,-1.5176 7.52936,-2.0407 13.29146,-7.3875 17.73629,-13.6529 12.93527,-14.636 25.66392,-29.5305 39.38424,-43.423 6.45535,-5.90133 15.25621,-8.46214 23.90568,-7.79536 11.25439,0.44808 23.19266,-1.4404 33.8845,2.81768 11.27342,6.18123 18.39353,17.49278 27.20808,26.48958 9.26815,9.9862 17.95835,20.4943 27.32317,30.4301 8.16023,7.47 20.25959,5.4635 30.42356,6.1946 12.59946,0.392 25.3683,3e-4 37.86098,0.8636 3.98326,3.4162 -3.93504,5.14 -6.21306,6.65 -3.46238,1.8931 -7.70806,3.3683 -10.5313,5.89 0.89615,6.2748 4.21464,12.4864 3.66072,18.7946 -2.99699,2.8015 -7.31242,-0.7118 -10.69822,-1.1462 -3.39191,-0.7951 -7.1485,-3.036 -10.39553,-2.8493 -5.32338,4.989 -9.29723,11.7063 -15.49107,15.8482 -4.11028,0.1026 -5.11584,-5.7646 -7.99108,-8.1027 -0.94487,-2.0892 -2.23455,-1.1571 -2.99107,0.5357 -4.75603,5.3537 -10.32875,10.7015 -17.03125,13.4152 -0.27859,0.07 -0.56895,0.05 -0.84821,0 z"
       id="path3656"
       inkscape:connector-curvature="0" />
    <g
       id="g3511">
      <path
         inkscape:connector-curvature="0"
         id="path4418"
         d="m 681.87281,929.66947 c -1.73208,3.92023 4.324,5.15961 6.62947,7.25447 2.31953,1.69872 6.03225,2.79375 7.54464,4.91071 -1.42395,2.76261 -6.16879,4.33226 -5.24554,7.92411 3.0617,2.81768 7.83971,0.20769 11.54018,0.35714 2.43578,0.11821 6.546,-1.80017 7.91646,-0.248 0.4172,5.7462 0.29466,11.62217 1.03444,17.41318 2.78572,3.60796 6.05523,-1.80336 8.5491,-3.25893 1.98874,-2.04885 2.70049,2.48497 3.59375,3.54911 2.92552,5.3076 5.24647,11.41795 10,15.35714 3.94,0.95316 6.50354,-4.15822 10,-4.50893 3.84438,4.32018 -0.29166,10.49213 0.75893,15.46875 2.82397,2.74771 6.9011,-0.78243 10.20089,-0.95982 1.60728,0.023 6.68688,-2.3659 5.80358,0.0223 -1.86514,4.82216 -4.6206,9.8104 -4.59822,15.067 2.50135,3.5485 6.29562,-1.3773 8.93346,-2.3176 3.3325,-1.8997 6.52959,-4.5921 9.66029,-6.4994 4.11749,3.9138 7.07888,9.7117 12.67857,11.7857 4.08067,-0.994 5.79615,-5.934 8.86161,-8.5491 1.62994,-3.44884 3.3848,-0.1345 4.6875,1.5848 3.50081,4.2997 5.52675,10.0765 10.11161,13.3259 5.38203,0.5549 6.12858,-8.7013 11.51785,-7.9241 6.58469,4.8904 13.63483,9.6574 21.29465,12.7232 4.33449,0.3327 2.62455,-5.2046 2.00456,-7.7049 -0.16737,-2.1113 -1.62324,-4.6791 -1.15635,-6.6031 8.03842,-1.8388 15.79714,2.0762 23.63839,2.8348 5.25395,-0.9325 2.88115,-7.5633 2.87958,-11.12469 -0.25926,-3.3967 -0.62985,-6.76312 -0.62511,-10.14762 5.51526,1.9786 9.82701,6.2385 15.35714,7.83483 3.99249,-1.04454 1.98973,-6.60583 2.8125,-9.62054 0.42788,-5.02677 -0.18177,-10.74275 0.95982,-15.33482 6.66062,0.72539 13.0695,3.04807 19.0505,5.67584 3.40757,-2.77966 1.97571,-8.32147 2.36926,-12.37222 0.42358,-3.22121 -1.22253,-8.12317 0.42791,-10.24074 7.18416,-1.33465 14.43433,0.22686 21.56537,0.63572 3.70094,-1.9023 -0.96768,-6.3493 -1.54402,-9.15742 -0.5458,-2.34776 -3.19845,-5.63735 -1.82437,-7.75547 5.75801,-2.91125 12.55147,-3.64775 17.99107,-6.96428 0.29726,-4.99345 -6.65622,-2.10582 -9.68718,-2.8083 -14.70951,0.48626 -29.5593,-0.51188 -44.17443,1.29044 -11.61744,2.41553 -17.753,13.4717 -25.2079,21.42893 -11.41384,12.42761 -22.09241,25.73725 -34.27871,37.20946 -10.70168,9.01306 -28.00513,7.7579 -37.1875,-2.85714 -15.30198,-15.67127 -29.11113,-32.687 -44.04018,-48.79464 -8.67709,-9.27681 -22.31752,-7.76334 -33.83904,-8.12221 -12.04024,0.0563 -24.22469,-0.63415 -36.17327,-0.10825 l -0.65964,0.274 -0.13162,0.0547 z"
         style="color:#000000;fill:#949494;fill-opacity:1;fill-rule:nonzero;stroke:none;stroke-width:7.08661413;marker:none;visibility:visible;display:inline;overflow:visible;enable-background:accumulate" />
      <path
         inkscape:connector-curvature="0"
         id="path4518"
         d="m 886.33584,864.14089 c -8.07661,3.83904 -14.98437,9.81233 -22.83482,14.04017 -5.01193,-2.62875 -8.89275,-7.17298 -13.86161,-9.64285 -4.02297,2.73521 -4.31142,9.33422 -8.57143,11.96428 -6.79036,-2.86618 -11.83006,-9.67239 -19.35268,-10.9375 -7.13421,1.468 -12.48206,8.00727 -19.375,9.73215 -4.55235,-2.54607 -8.14379,-7.00239 -11.34174,-11.02682 -3.50956,-1.13772 -5.57692,3.96262 -8.6012,5.3216 -4.5415,3.31176 -9.07182,7.06468 -13.91867,9.56682 -4.29062,-3.51835 -5.59421,-9.34076 -9.08482,-13.32589 -4.48291,1.04344 -7.40655,5.55461 -11.16433,8.10615 -2.31381,1.4417 -4.69566,4.97877 -7.27317,5.01885 -5.44222,-3.43381 -9.96044,-8.12823 -14.46428,-12.45536 -4.20999,1.93303 -6.36792,6.9866 -9.48116,10.37784 -1.18651,1.4226 -2.06016,3.37888 -2.9742,4.82306 -4.86301,-1.55108 -8.90134,-4.82417 -13.35499,-7.04554 -4.24381,0.92282 -2.53932,6.79387 -3.28014,9.94677 -0.29199,2.10045 0.56663,6.37268 -2.82915,5.04519 -5.3909,-0.30811 -10.90154,-2.26368 -16.21457,-1.79452 -3.28213,2.12498 0.5912,6.26932 1.48242,8.87042 0.42424,1.38253 3.44544,3.41821 0.71429,4.10714 -4.48562,2.27781 -9.84206,2.88999 -13.90625,5.80357 -0.18464,4.9059 6.63381,2.15445 9.66438,2.9467 16.92997,0.52427 34.05743,-0.15809 50.82669,1.51759 7.52936,2.04073 13.29146,7.38748 17.73629,13.65285 12.93527,14.63607 25.66392,29.53055 39.38424,43.42304 6.45535,5.90133 15.25621,8.46214 23.90568,7.79536 11.25439,-0.44808 23.19266,1.4404 33.8845,-2.81768 11.27342,-6.18123 18.39353,-17.49277 27.20808,-26.48957 9.26815,-9.98625 17.95835,-20.49432 27.32317,-30.43007 8.16023,-7.47007 20.25959,-5.46356 30.42356,-6.19463 12.59946,-0.39198 25.3683,-3e-4 37.86098,-0.86357 3.98326,-3.41619 -3.93504,-5.14003 -6.21306,-6.65004 -3.46238,-1.89305 -7.70806,-3.36826 -10.5313,-5.88998 0.89615,-6.27477 4.21464,-12.48639 3.66072,-18.79464 -2.99699,-2.80148 -7.31242,0.71182 -10.69822,1.14618 -3.39191,0.79517 -7.1485,3.03609 -10.39553,2.84935 -5.32338,-4.98903 -9.29723,-11.70636 -15.49107,-15.84821 -4.11028,-0.10261 -5.11584,5.76457 -7.99108,8.10268 -0.94487,2.08919 -2.23455,1.15715 -2.99107,-0.53572 -4.75603,-5.35369 -10.32875,-10.70145 -17.03125,-13.41517 -0.27859,-0.0699 -0.56895,-0.0505 -0.84821,0 z"
         style="color:#000000;fill:#c8c8c8;fill-opacity:1;fill-rule:nonzero;stroke:none;stroke-width:7.08661413;marker:none;visibility:visible;display:inline;overflow:visible;enable-background:accumulate" />
      <g
         transform="matrix(-1,0,0,-1,1001.66,1201.1667)"
         id="g4052">
        <g
           id="g3938">
          <path
             style="color:#000000;fill:#000000;fill-opacity:1;fill-rule:nonzero;stroke:none;stroke-width:7.08661413;marker:none;visibility:visible;display:inline;overflow:visible;enable-background:accumulate"
             id="path3862"
             d="m 323.83358,270.25585 c -9.4863,0 -18.9726,0 -28.4589,0 -8.08934,0.0262 -16.17739,0.004 -24.26617,-0.0854 -2.02018,-0.0223 -2.05174,2.83465 -0.0316,2.85697 l 0,0 c 8.0993,0.0894 16.19786,0.11196 24.29773,0.0855 9.4863,0 18.9726,0 28.4589,0 2.02031,0 2.02031,-2.85714 0,-2.85714 z"
             inkscape:connector-curvature="0" />
          <path
             style="color:#000000;fill:#000000;fill-opacity:1;fill-rule:nonzero;stroke:none;stroke-width:7.08661413;marker:none;visibility:visible;display:inline;overflow:visible;enable-background:accumulate"
             id="path3864"
             d="m 202.99555,214.12522 c 4.24845,4.92935 8.63348,9.74945 13.01756,14.56022 9.20316,10.18155 18.66868,20.13803 27.42046,30.71564 0.87062,1.1653 1.74125,2.33061 2.61187,3.49592 1.20984,1.618 3.49804,-0.093 2.2882,-1.71097 l 0,0 c -0.89965,-1.20219 -1.79929,-2.40438 -2.69894,-3.60657 -8.7832,-10.61064 -18.27333,-20.60569 -27.50983,-30.81853 -4.28834,-4.70548 -8.55345,-9.43564 -12.75203,-14.22057 -1.12067,-1.68099 -3.49795,-0.0961 -2.37729,1.58486 z"
             inkscape:connector-curvature="0" />
          <path
             style="color:#000000;fill:#000000;fill-opacity:1;fill-rule:nonzero;stroke:none;stroke-width:7.08661413;marker:none;visibility:visible;display:inline;overflow:visible;enable-background:accumulate"
             id="path3866"
             d="m 205.03107,212.742 c -2.08421,-2.52816 -4.91679,-4.1795 -7.75099,-5.72756 -3.58083,-1.81473 -7.39415,-2.74141 -11.37627,-2.96794 -2.01734,-0.10945 -2.17212,2.7435 -0.15478,2.85295 l 0,0 c 3.55935,0.18232 6.95943,1.01807 10.16536,2.6246 2.4434,1.32427 4.85754,2.71393 6.73939,4.80281 1.12067,1.68099 3.49795,0.0961 2.37729,-1.58486 z"
             inkscape:connector-curvature="0" />
          <path
             inkscape:connector-curvature="0"
             d="m 247.69505,260.53692 c 1.82013,1.95853 3.76995,3.72123 5.93179,5.29274 5.68314,3.38609 12.32874,4.21978 18.82588,4.33462 2.01994,0.0386 1.9654,2.89519 -0.0545,2.85663 l 0,0 c -7.08686,-0.14467 -14.30182,-1.10957 -20.45692,-4.88428 -2.27267,-1.66814 -4.34958,-3.50972 -6.26651,-5.5794 -1.42858,-1.42857 0.59173,-3.44888 2.0203,-2.02031 z"
             id="path3936"
             style="color:#000000;fill:#000000;fill-opacity:1;fill-rule:nonzero;stroke:none;stroke-width:7.08661413;marker:none;visibility:visible;display:inline;overflow:visible;enable-background:accumulate" />
        </g>
        <g
           id="g3949"
           transform="matrix(-1,0,0,1,369.65996,0)">
          <path
             inkscape:connector-curvature="0"
             d="m 323.83358,270.25585 c -9.4863,0 -18.9726,0 -28.4589,0 -8.08934,0.0262 -16.17739,0.004 -24.26617,-0.0854 -2.02018,-0.0223 -2.05174,2.83465 -0.0316,2.85697 l 0,0 c 8.0993,0.0894 16.19786,0.11196 24.29773,0.0855 9.4863,0 18.9726,0 28.4589,0 2.02031,0 2.02031,-2.85714 0,-2.85714 z"
             id="path3951"
             style="color:#000000;fill:#000000;fill-opacity:1;fill-rule:nonzero;stroke:none;stroke-width:7.08661413;marker:none;visibility:visible;display:inline;overflow:visible;enable-background:accumulate" />
          <path
             inkscape:connector-curvature="0"
             d="m 202.99555,214.12522 c 4.24845,4.92935 8.63348,9.74945 13.01756,14.56022 9.20316,10.18155 18.66868,20.13803 27.42046,30.71564 0.87062,1.1653 1.74125,2.33061 2.61187,3.49592 1.20984,1.618 3.49804,-0.093 2.2882,-1.71097 l 0,0 c -0.89965,-1.20219 -1.79929,-2.40438 -2.69894,-3.60657 -8.7832,-10.61064 -18.27333,-20.60569 -27.50983,-30.81853 -4.28834,-4.70548 -8.55345,-9.43564 -12.75203,-14.22057 -1.12067,-1.68099 -3.49795,-0.0961 -2.37729,1.58486 z"
             id="path3953"
             style="color:#000000;fill:#000000;fill-opacity:1;fill-rule:nonzero;stroke:none;stroke-width:7.08661413;marker:none;visibility:visible;display:inline;overflow:visible;enable-background:accumulate" />
          <path
             inkscape:connector-curvature="0"
             d="m 205.03107,212.742 c -2.08421,-2.52816 -4.91679,-4.1795 -7.75099,-5.72756 -3.58083,-1.81473 -7.39415,-2.74141 -11.37627,-2.96794 -2.01734,-0.10945 -2.17212,2.7435 -0.15478,2.85295 l 0,0 c 3.55935,0.18232 6.95943,1.01807 10.16536,2.6246 2.4434,1.32427 4.85754,2.71393 6.73939,4.80281 1.12067,1.68099 3.49795,0.0961 2.37729,-1.58486 z"
             id="path3955"
             style="color:#000000;fill:#000000;fill-opacity:1;fill-rule:nonzero;stroke:none;stroke-width:7.08661413;marker:none;visibility:visible;display:inline;overflow:visible;enable-background:accumulate" />
          <path
             style="color:#000000;fill:#000000;fill-opacity:1;fill-rule:nonzero;stroke:none;stroke-width:7.08661413;marker:none;visibility:visible;display:inline;overflow:visible;enable-background:accumulate"
             id="path3957"
             d="m 247.69505,260.53692 c 1.82013,1.95853 3.76995,3.72123 5.93179,5.29274 5.68314,3.38609 12.32874,4.21978 18.82588,4.33462 2.01994,0.0386 1.9654,2.89519 -0.0545,2.85663 l 0,0 c -7.08686,-0.14467 -14.30182,-1.10957 -20.45692,-4.88428 -2.27267,-1.66814 -4.34958,-3.50972 -6.26651,-5.5794 -1.42858,-1.42857 0.59173,-3.44888 2.0203,-2.02031 z"
             inkscape:connector-curvature="0" />
        </g>
      </g>
      <g
         transform="matrix(-1,0,0,-1,1001.66,1201.1667)"
         id="g4039">
        <g
           id="g3963"
           transform="translate(14,16)">
          <path
             inkscape:connector-curvature="0"
             d="m 323.83358,270.25585 c -9.4863,0 -18.9726,0 -28.4589,0 -8.08934,0.0262 -16.17739,0.004 -24.26617,-0.0854 -2.02018,-0.0223 -2.05174,2.83465 -0.0316,2.85697 l 0,0 c 8.0993,0.0894 16.19786,0.11196 24.29773,0.0855 9.4863,0 18.9726,0 28.4589,0 2.02031,0 2.02031,-2.85714 0,-2.85714 z"
             id="path3965"
             style="color:#000000;fill:#000000;fill-opacity:1;fill-rule:nonzero;stroke:none;stroke-width:7.08661413;marker:none;visibility:visible;display:inline;overflow:visible;enable-background:accumulate" />
          <path
             inkscape:connector-curvature="0"
             d="m 202.99555,214.12522 c 4.24845,4.92935 8.63348,9.74945 13.01756,14.56022 9.20316,10.18155 18.66868,20.13803 27.42046,30.71564 0.87062,1.1653 1.74125,2.33061 2.61187,3.49592 1.20984,1.618 3.49804,-0.093 2.2882,-1.71097 l 0,0 c -0.89965,-1.20219 -1.79929,-2.40438 -2.69894,-3.60657 -8.7832,-10.61064 -18.27333,-20.60569 -27.50983,-30.81853 -4.28834,-4.70548 -8.55345,-9.43564 -12.75203,-14.22057 -1.12067,-1.68099 -3.49795,-0.0961 -2.37729,1.58486 z"
             id="path3967"
             style="color:#000000;fill:#000000;fill-opacity:1;fill-rule:nonzero;stroke:none;stroke-width:7.08661413;marker:none;visibility:visible;display:inline;overflow:visible;enable-background:accumulate" />
          <path
             inkscape:connector-curvature="0"
             d="m 205.03107,212.742 c -2.08421,-2.52816 -4.91679,-4.1795 -7.75099,-5.72756 -3.58083,-1.81473 -7.39415,-2.74141 -11.37627,-2.96794 -2.01734,-0.10945 -2.17212,2.7435 -0.15478,2.85295 l 0,0 c 3.55935,0.18232 6.95943,1.01807 10.16536,2.6246 2.4434,1.32427 4.85754,2.71393 6.73939,4.80281 1.12067,1.68099 3.49795,0.0961 2.37729,-1.58486 z"
             id="path3969"
             style="color:#000000;fill:#000000;fill-opacity:1;fill-rule:nonzero;stroke:none;stroke-width:7.08661413;marker:none;visibility:visible;display:inline;overflow:visible;enable-background:accumulate" />
          <path
             style="color:#000000;fill:#000000;fill-opacity:1;fill-rule:nonzero;stroke:none;stroke-width:7.08661413;marker:none;visibility:visible;display:inline;overflow:visible;enable-background:accumulate"
             id="path3971"
             d="m 247.69505,260.53692 c 1.82013,1.95853 3.76995,3.72123 5.93179,5.29274 5.68314,3.38609 12.32874,4.21978 18.82588,4.33462 2.01994,0.0386 1.9654,2.89519 -0.0545,2.85663 l 0,0 c -7.08686,-0.14467 -14.30182,-1.10957 -20.45692,-4.88428 -2.27267,-1.66814 -4.34958,-3.50972 -6.26651,-5.5794 -1.42858,-1.42857 0.59173,-3.44888 2.0203,-2.02031 z"
             inkscape:connector-curvature="0" />
        </g>
        <g
           transform="matrix(-1,0,0,1,355.65996,16)"
           id="g3973">
          <path
             style="color:#000000;fill:#000000;fill-opacity:1;fill-rule:nonzero;stroke:none;stroke-width:7.08661413;marker:none;visibility:visible;display:inline;overflow:visible;enable-background:accumulate"
             id="path3975"
             d="m 323.83358,270.25585 c -9.4863,0 -18.9726,0 -28.4589,0 -8.08934,0.0262 -16.17739,0.004 -24.26617,-0.0854 -2.02018,-0.0223 -2.05174,2.83465 -0.0316,2.85697 l 0,0 c 8.0993,0.0894 16.19786,0.11196 24.29773,0.0855 9.4863,0 18.9726,0 28.4589,0 2.02031,0 2.02031,-2.85714 0,-2.85714 z"
             inkscape:connector-curvature="0" />
          <path
             style="color:#000000;fill:#000000;fill-opacity:1;fill-rule:nonzero;stroke:none;stroke-width:7.08661413;marker:none;visibility:visible;display:inline;overflow:visible;enable-background:accumulate"
             id="path3977"
             d="m 202.99555,214.12522 c 4.24845,4.92935 8.63348,9.74945 13.01756,14.56022 9.20316,10.18155 18.66868,20.13803 27.42046,30.71564 0.87062,1.1653 1.74125,2.33061 2.61187,3.49592 1.20984,1.618 3.49804,-0.093 2.2882,-1.71097 l 0,0 c -0.89965,-1.20219 -1.79929,-2.40438 -2.69894,-3.60657 -8.7832,-10.61064 -18.27333,-20.60569 -27.50983,-30.81853 -4.28834,-4.70548 -8.55345,-9.43564 -12.75203,-14.22057 -1.12067,-1.68099 -3.49795,-0.0961 -2.37729,1.58486 z"
             inkscape:connector-curvature="0" />
          <path
             style="color:#000000;fill:#000000;fill-opacity:1;fill-rule:nonzero;stroke:none;stroke-width:7.08661413;marker:none;visibility:visible;display:inline;overflow:visible;enable-background:accumulate"
             id="path3979"
             d="m 205.03107,212.742 c -2.08421,-2.52816 -4.91679,-4.1795 -7.75099,-5.72756 -3.58083,-1.81473 -7.39415,-2.74141 -11.37627,-2.96794 -2.01734,-0.10945 -2.17212,2.7435 -0.15478,2.85295 l 0,0 c 3.55935,0.18232 6.95943,1.01807 10.16536,2.6246 2.4434,1.32427 4.85754,2.71393 6.73939,4.80281 1.12067,1.68099 3.49795,0.0961 2.37729,-1.58486 z"
             inkscape:connector-curvature="0" />
          <path
             inkscape:connector-curvature="0"
             d="m 247.69505,260.53692 c 1.82013,1.95853 3.76995,3.72123 5.93179,5.29274 5.68314,3.38609 12.32874,4.21978 18.82588,4.33462 2.01994,0.0386 1.9654,2.89519 -0.0545,2.85663 l 0,0 c -7.08686,-0.14467 -14.30182,-1.10957 -20.45692,-4.88428 -2.27267,-1.66814 -4.34958,-3.50972 -6.26651,-5.5794 -1.42858,-1.42857 0.59173,-3.44888 2.0203,-2.02031 z"
             id="path3981"
             style="color:#000000;fill:#000000;fill-opacity:1;fill-rule:nonzero;stroke:none;stroke-width:7.08661413;marker:none;visibility:visible;display:inline;overflow:visible;enable-background:accumulate" />
        </g>
        <path
           style="color:#000000;fill:#000000;fill-opacity:1;fill-rule:nonzero;stroke:none;stroke-width:7.08661413;marker:none;visibility:visible;display:inline;overflow:visible;enable-background:accumulate"
           id="path4037"
           d="m 169.01683,219.86218 c 5.3876,0 10.7752,0 16.16282,0 4.70305,-0.0235 9.40341,-0.009 14.10524,0.0858 2.15799,0.0439 2.09167,2.90035 -0.0663,2.85647 l 0,0 c -4.67971,-0.0956 -9.358,-0.10772 -14.03894,-0.0851 -5.38761,0 -10.77521,0 -16.16281,0 -2.15848,0 -2.15848,-2.85714 0,-2.85714 z"
           inkscape:connector-curvature="0" />
      </g>
    </g>
    <path
       inkscape:connector-curvature="0"
       id="path3340"
       d="m 61.872813,929.66947 c -1.732084,3.92023 4.324001,5.15961 6.629464,7.25447 2.319536,1.69872 6.032253,2.79375 7.544643,4.91071 -1.423951,2.76261 -6.168791,4.33226 -5.245536,7.92411 3.061701,2.81768 7.839708,0.20769 11.540179,0.35714 2.435779,0.11821 6.546001,-1.80017 7.916461,-0.248 0.417197,5.7462 0.294655,11.62217 1.034432,17.41318 2.785729,3.60796 6.055231,-1.80336 8.549107,-3.25893 1.988737,-2.04885 2.700487,2.48497 3.593747,3.54911 2.92552,5.3076 5.24647,11.41795 10,15.35714 3.94,0.95316 6.50354,-4.15822 10,-4.50893 3.84438,4.32018 -0.29166,10.49213 0.75893,15.46875 2.82397,2.74771 6.9011,-0.78243 10.20089,-0.95982 1.60728,0.023 6.68688,-2.3659 5.80358,0.0223 -1.86514,4.82216 -4.6206,9.8104 -4.59822,15.067 2.50135,3.5485 6.29562,-1.3773 8.93346,-2.3176 3.3325,-1.8997 6.52959,-4.5921 9.66029,-6.4994 4.11749,3.9138 7.07888,9.7117 12.67857,11.7857 4.08067,-0.994 5.79615,-5.934 8.86161,-8.5491 1.62994,-3.44884 3.3848,-0.1345 4.6875,1.5848 3.50081,4.2997 5.52675,10.0765 10.11161,13.3259 5.38203,0.5549 6.12858,-8.7013 11.51785,-7.9241 6.58469,4.8904 13.63483,9.6574 21.29465,12.7232 4.33449,0.3327 2.62455,-5.2046 2.00456,-7.7049 -0.16737,-2.1113 -1.62324,-4.6791 -1.15635,-6.6031 8.03842,-1.8388 15.79714,2.0762 23.63839,2.8348 5.25395,-0.9325 2.88115,-7.5633 2.87958,-11.12469 -0.25926,-3.3967 -0.62985,-6.76312 -0.62511,-10.14762 5.51526,1.9786 9.82701,6.2385 15.35714,7.83483 3.99249,-1.04454 1.98973,-6.60583 2.8125,-9.62054 0.42788,-5.02677 -0.18177,-10.74275 0.95982,-15.33482 6.66062,0.72539 13.0695,3.04807 19.0505,5.67584 3.40757,-2.77966 1.97571,-8.32147 2.36926,-12.37222 0.42358,-3.22121 -1.22253,-8.12317 0.42791,-10.24074 7.18416,-1.33465 14.43433,0.22686 21.56537,0.63572 3.70094,-1.9023 -0.96768,-6.3493 -1.54402,-9.15742 -0.5458,-2.34776 -3.19845,-5.63735 -1.82437,-7.75547 5.75801,-2.91125 12.55147,-3.64775 17.99107,-6.96428 0.29726,-4.99345 -6.65622,-2.10582 -9.68718,-2.8083 -14.70951,0.48626 -29.5593,-0.51188 -44.17443,1.29044 -11.61744,2.41553 -17.753,13.4717 -25.2079,21.42893 -11.41384,12.42761 -22.09241,25.73725 -34.27871,37.20946 -10.70168,9.01306 -28.00513,7.7579 -37.1875,-2.85714 -15.30198,-15.67127 -29.11113,-32.687 -44.04018,-48.79464 -8.67709,-9.27681 -22.31752,-7.76334 -33.839036,-8.12221 -12.040247,0.0563 -24.224698,-0.63415 -36.173279,-0.10825 l -0.65964,0.274 -0.131612,0.0547 z"
       style="color:#000000;fill:#949494;fill-opacity:1;fill-rule:nonzero;stroke:none;stroke-width:7.08661413;marker:none;visibility:visible;display:inline;overflow:visible;enable-background:accumulate" />
    <path
       inkscape:connector-curvature="0"
       id="path3342"
       d="m 266.33584,864.14089 c -8.07661,3.83904 -14.98437,9.81233 -22.83482,14.04017 -5.01193,-2.62875 -8.89275,-7.17298 -13.86161,-9.64285 -4.02297,2.73521 -4.31142,9.33422 -8.57143,11.96428 -6.79036,-2.86618 -11.83006,-9.67239 -19.35268,-10.9375 -7.13421,1.468 -12.48206,8.00727 -19.375,9.73215 -4.55235,-2.54607 -8.14379,-7.00239 -11.34174,-11.02682 -3.50956,-1.13772 -5.57692,3.96262 -8.6012,5.3216 -4.5415,3.31176 -9.07182,7.06468 -13.91867,9.56682 -4.29062,-3.51835 -5.59421,-9.34076 -9.08482,-13.32589 -4.48291,1.04344 -7.40655,5.55461 -11.16433,8.10615 -2.31381,1.4417 -4.69566,4.97877 -7.27317,5.01885 -5.44222,-3.43381 -9.96044,-8.12823 -14.46428,-12.45536 -4.20999,1.93303 -6.36792,6.9866 -9.481159,10.37784 -1.186508,1.4226 -2.060165,3.37888 -2.9742,4.82306 -4.863015,-1.55108 -8.901345,-4.82417 -13.354989,-7.04554 -4.243815,0.92282 -2.539324,6.79387 -3.280144,9.94677 -0.291988,2.10045 0.566629,6.37268 -2.829153,5.04519 -5.390895,-0.30811 -10.901536,-2.26368 -16.214568,-1.79452 -3.282128,2.12498 0.591202,6.26932 1.482425,8.87042 0.42424,1.38253 3.445439,3.41821 0.714286,4.10714 -4.485622,2.27781 -9.842055,2.88999 -13.90625,5.80357 -0.184633,4.9059 6.633812,2.15445 9.664382,2.9467 16.929967,0.52427 34.057433,-0.15809 50.82669,1.51759 7.52936,2.04073 13.29146,7.38748 17.73629,13.65285 12.93527,14.63607 25.66392,29.53055 39.38424,43.42304 6.45535,5.90133 15.25621,8.46214 23.90568,7.79536 11.25439,-0.44808 23.19266,1.4404 33.8845,-2.81768 11.27342,-6.18123 18.39353,-17.49277 27.20808,-26.48957 9.26815,-9.98625 17.95835,-20.49432 27.32317,-30.43007 8.16023,-7.47007 20.25959,-5.46356 30.42356,-6.19463 12.59946,-0.39198 25.3683,-3e-4 37.86098,-0.86357 3.98326,-3.41619 -3.93504,-5.14003 -6.21306,-6.65004 -3.46238,-1.89305 -7.70806,-3.36826 -10.5313,-5.88998 0.89615,-6.27477 4.21464,-12.48639 3.66072,-18.79464 -2.99699,-2.80148 -7.31242,0.71182 -10.69822,1.14618 -3.39191,0.79517 -7.1485,3.03609 -10.39553,2.84935 -5.32338,-4.98903 -9.29723,-11.70636 -15.49107,-15.84821 -4.11028,-0.10261 -5.11584,5.76457 -7.99108,8.10268 -0.94487,2.08919 -2.23455,1.15715 -2.99107,-0.53572 -4.75603,-5.35369 -10.32875,-10.70145 -17.03125,-13.41517 -0.27859,-0.0699 -0.56895,-0.0505 -0.84821,0 z"
       style="color:#000000;fill:#c8c8c8;fill-opacity:1;fill-rule:nonzero;stroke:none;stroke-width:7.08661413;marker:none;visibility:visible;display:inline;overflow:visible;enable-background:accumulate" />
    <text
       xml:space="preserve"
       style="font-style:normal;font-variant:normal;font-weight:bold;font-stretch:normal;line-height:0%;font-family:Arial;-inkscape-font-specification:'Sans Bold';text-align:start;letter-spacing:0px;word-spacing:0px;text-anchor:start;fill:#000000;fill-opacity:1;stroke:none"
       x="166.14285"
       y="949.79077"
       id="text4364"><tspan
         sodipodi:role="line"
         id="tspan4366"
         x="166.14285"
         y="949.79077"
         style="font-weight:bold;font-size:28px;line-height:1.25;-inkscape-font-specification:'Sans Bold';fill:#e70000;fill-opacity:1">BAD</tspan></text>
    <g
       transform="matrix(-1,0,0,-1,381.65996,1201.1667)"
       id="g3344">
      <g
         id="g3346">
        <path
           style="color:#000000;fill:#000000;fill-opacity:1;fill-rule:nonzero;stroke:none;stroke-width:7.08661413;marker:none;visibility:visible;display:inline;overflow:visible;enable-background:accumulate"
           id="path3348"
           d="m 323.83358,270.25585 c -9.4863,0 -18.9726,0 -28.4589,0 -8.08934,0.0262 -16.17739,0.004 -24.26617,-0.0854 -2.02018,-0.0223 -2.05174,2.83465 -0.0316,2.85697 l 0,0 c 8.0993,0.0894 16.19786,0.11196 24.29773,0.0855 9.4863,0 18.9726,0 28.4589,0 2.02031,0 2.02031,-2.85714 0,-2.85714 z"
           inkscape:connector-curvature="0" />
        <path
           style="color:#000000;fill:#000000;fill-opacity:1;fill-rule:nonzero;stroke:none;stroke-width:7.08661413;marker:none;visibility:visible;display:inline;overflow:visible;enable-background:accumulate"
           id="path3350"
           d="m 202.99555,214.12522 c 4.24845,4.92935 8.63348,9.74945 13.01756,14.56022 9.20316,10.18155 18.66868,20.13803 27.42046,30.71564 0.87062,1.1653 1.74125,2.33061 2.61187,3.49592 1.20984,1.618 3.49804,-0.093 2.2882,-1.71097 l 0,0 c -0.89965,-1.20219 -1.79929,-2.40438 -2.69894,-3.60657 -8.7832,-10.61064 -18.27333,-20.60569 -27.50983,-30.81853 -4.28834,-4.70548 -8.55345,-9.43564 -12.75203,-14.22057 -1.12067,-1.68099 -3.49795,-0.0961 -2.37729,1.58486 z"
           inkscape:connector-curvature="0" />
        <path
           style="color:#000000;fill:#000000;fill-opacity:1;fill-rule:nonzero;stroke:none;stroke-width:7.08661413;marker:none;visibility:visible;display:inline;overflow:visible;enable-background:accumulate"
           id="path3352"
           d="m 205.03107,212.742 c -2.08421,-2.52816 -4.91679,-4.1795 -7.75099,-5.72756 -3.58083,-1.81473 -7.39415,-2.74141 -11.37627,-2.96794 -2.01734,-0.10945 -2.17212,2.7435 -0.15478,2.85295 l 0,0 c 3.55935,0.18232 6.95943,1.01807 10.16536,2.6246 2.4434,1.32427 4.85754,2.71393 6.73939,4.80281 1.12067,1.68099 3.49795,0.0961 2.37729,-1.58486 z"
           inkscape:connector-curvature="0" />
        <path
           inkscape:connector-curvature="0"
           d="m 247.69505,260.53692 c 1.82013,1.95853 3.76995,3.72123 5.93179,5.29274 5.68314,3.38609 12.32874,4.21978 18.82588,4.33462 2.01994,0.0386 1.9654,2.89519 -0.0545,2.85663 l 0,0 c -7.08686,-0.14467 -14.30182,-1.10957 -20.45692,-4.88428 -2.27267,-1.66814 -4.34958,-3.50972 -6.26651,-5.5794 -1.42858,-1.42857 0.59173,-3.44888 2.0203,-2.02031 z"
           id="path3354"
           style="color:#000000;fill:#000000;fill-opacity:1;fill-rule:nonzero;stroke:none;stroke-width:7.08661413;marker:none;visibility:visible;display:inline;overflow:visible;enable-background:accumulate" />
      </g>
      <g
         id="g3356"
         transform="matrix(-1,0,0,1,369.65996,0)">
        <path
           inkscape:connector-curvature="0"
           d="m 323.83358,270.25585 c -9.4863,0 -18.9726,0 -28.4589,0 -8.08934,0.0262 -16.17739,0.004 -24.26617,-0.0854 -2.02018,-0.0223 -2.05174,2.83465 -0.0316,2.85697 l 0,0 c 8.0993,0.0894 16.19786,0.11196 24.29773,0.0855 9.4863,0 18.9726,0 28.4589,0 2.02031,0 2.02031,-2.85714 0,-2.85714 z"
           id="path3358"
           style="color:#000000;fill:#000000;fill-opacity:1;fill-rule:nonzero;stroke:none;stroke-width:7.08661413;marker:none;visibility:visible;display:inline;overflow:visible;enable-background:accumulate" />
        <path
           inkscape:connector-curvature="0"
           d="m 202.99555,214.12522 c 4.24845,4.92935 8.63348,9.74945 13.01756,14.56022 9.20316,10.18155 18.66868,20.13803 27.42046,30.71564 0.87062,1.1653 1.74125,2.33061 2.61187,3.49592 1.20984,1.618 3.49804,-0.093 2.2882,-1.71097 l 0,0 c -0.89965,-1.20219 -1.79929,-2.40438 -2.69894,-3.60657 -8.7832,-10.61064 -18.27333,-20.60569 -27.50983,-30.81853 -4.28834,-4.70548 -8.55345,-9.43564 -12.75203,-14.22057 -1.12067,-1.68099 -3.49795,-0.0961 -2.37729,1.58486 z"
           id="path3360"
           style="color:#000000;fill:#000000;fill-opacity:1;fill-rule:nonzero;stroke:none;stroke-width:7.08661413;marker:none;visibility:visible;display:inline;overflow:visible;enable-background:accumulate" />
        <path
           inkscape:connector-curvature="0"
           d="m 205.03107,212.742 c -2.08421,-2.52816 -4.91679,-4.1795 -7.75099,-5.72756 -3.58083,-1.81473 -7.39415,-2.74141 -11.37627,-2.96794 -2.01734,-0.10945 -2.17212,2.7435 -0.15478,2.85295 l 0,0 c 3.55935,0.18232 6.95943,1.01807 10.16536,2.6246 2.4434,1.32427 4.85754,2.71393 6.73939,4.80281 1.12067,1.68099 3.49795,0.0961 2.37729,-1.58486 z"
           id="path3362"
           style="color:#000000;fill:#000000;fill-opacity:1;fill-rule:nonzero;stroke:none;stroke-width:7.08661413;marker:none;visibility:visible;display:inline;overflow:visible;enable-background:accumulate" />
        <path
           style="color:#000000;fill:#000000;fill-opacity:1;fill-rule:nonzero;stroke:none;stroke-width:7.08661413;marker:none;visibility:visible;display:inline;overflow:visible;enable-background:accumulate"
           id="path3364"
           d="m 247.69505,260.53692 c 1.82013,1.95853 3.76995,3.72123 5.93179,5.29274 5.68314,3.38609 12.32874,4.21978 18.82588,4.33462 2.01994,0.0386 1.9654,2.89519 -0.0545,2.85663 l 0,0 c -7.08686,-0.14467 -14.30182,-1.10957 -20.45692,-4.88428 -2.27267,-1.66814 -4.34958,-3.50972 -6.26651,-5.5794 -1.42858,-1.42857 0.59173,-3.44888 2.0203,-2.02031 z"
           inkscape:connector-curvature="0" />
      </g>
    </g>
    <g
       transform="matrix(-1,0,0,-1,381.65996,1201.1667)"
       id="g3366">
      <g
         id="g3368"
         transform="translate(14,16)">
        <path
           inkscape:connector-curvature="0"
           d="m 323.83358,270.25585 c -9.4863,0 -18.9726,0 -28.4589,0 -8.08934,0.0262 -16.17739,0.004 -24.26617,-0.0854 -2.02018,-0.0223 -2.05174,2.83465 -0.0316,2.85697 l 0,0 c 8.0993,0.0894 16.19786,0.11196 24.29773,0.0855 9.4863,0 18.9726,0 28.4589,0 2.02031,0 2.02031,-2.85714 0,-2.85714 z"
           id="path3370"
           style="color:#000000;fill:#000000;fill-opacity:1;fill-rule:nonzero;stroke:none;stroke-width:7.08661413;marker:none;visibility:visible;display:inline;overflow:visible;enable-background:accumulate" />
        <path
           inkscape:connector-curvature="0"
           d="m 202.99555,214.12522 c 4.24845,4.92935 8.63348,9.74945 13.01756,14.56022 9.20316,10.18155 18.66868,20.13803 27.42046,30.71564 0.87062,1.1653 1.74125,2.33061 2.61187,3.49592 1.20984,1.618 3.49804,-0.093 2.2882,-1.71097 l 0,0 c -0.89965,-1.20219 -1.79929,-2.40438 -2.69894,-3.60657 -8.7832,-10.61064 -18.27333,-20.60569 -27.50983,-30.81853 -4.28834,-4.70548 -8.55345,-9.43564 -12.75203,-14.22057 -1.12067,-1.68099 -3.49795,-0.0961 -2.37729,1.58486 z"
           id="path3372"
           style="color:#000000;fill:#000000;fill-opacity:1;fill-rule:nonzero;stroke:none;stroke-width:7.08661413;marker:none;visibility:visible;display:inline;overflow:visible;enable-background:accumulate" />
        <path
           inkscape:connector-curvature="0"
           d="m 205.03107,212.742 c -2.08421,-2.52816 -4.91679,-4.1795 -7.75099,-5.72756 -3.58083,-1.81473 -7.39415,-2.74141 -11.37627,-2.96794 -2.01734,-0.10945 -2.17212,2.7435 -0.15478,2.85295 l 0,0 c 3.55935,0.18232 6.95943,1.01807 10.16536,2.6246 2.4434,1.32427 4.85754,2.71393 6.73939,4.80281 1.12067,1.68099 3.49795,0.0961 2.37729,-1.58486 z"
           id="path3374"
           style="color:#000000;fill:#000000;fill-opacity:1;fill-rule:nonzero;stroke:none;stroke-width:7.08661413;marker:none;visibility:visible;display:inline;overflow:visible;enable-background:accumulate" />
        <path
           style="color:#000000;fill:#000000;fill-opacity:1;fill-rule:nonzero;stroke:none;stroke-width:7.08661413;marker:none;visibility:visible;display:inline;overflow:visible;enable-background:accumulate"
           id="path3376"
           d="m 247.69505,260.53692 c 1.82013,1.95853 3.76995,3.72123 5.93179,5.29274 5.68314,3.38609 12.32874,4.21978 18.82588,4.33462 2.01994,0.0386 1.9654,2.89519 -0.0545,2.85663 l 0,0 c -7.08686,-0.14467 -14.30182,-1.10957 -20.45692,-4.88428 -2.27267,-1.66814 -4.34958,-3.50972 -6.26651,-5.5794 -1.42858,-1.42857 0.59173,-3.44888 2.0203,-2.02031 z"
           inkscape:connector-curvature="0" />
      </g>
      <g
         transform="matrix(-1,0,0,1,355.65996,16)"
         id="g3378">
        <path
           style="color:#000000;fill:#000000;fill-opacity:1;fill-rule:nonzero;stroke:none;stroke-width:7.08661413;marker:none;visibility:visible;display:inline;overflow:visible;enable-background:accumulate"
           id="path3380"
           d="m 323.83358,270.25585 c -9.4863,0 -18.9726,0 -28.4589,0 -8.08934,0.0262 -16.17739,0.004 -24.26617,-0.0854 -2.02018,-0.0223 -2.05174,2.83465 -0.0316,2.85697 l 0,0 c 8.0993,0.0894 16.19786,0.11196 24.29773,0.0855 9.4863,0 18.9726,0 28.4589,0 2.02031,0 2.02031,-2.85714 0,-2.85714 z"
           inkscape:connector-curvature="0" />
        <path
           style="color:#000000;fill:#000000;fill-opacity:1;fill-rule:nonzero;stroke:none;stroke-width:7.08661413;marker:none;visibility:visible;display:inline;overflow:visible;enable-background:accumulate"
           id="path3382"
           d="m 202.99555,214.12522 c 4.24845,4.92935 8.63348,9.74945 13.01756,14.56022 9.20316,10.18155 18.66868,20.13803 27.42046,30.71564 0.87062,1.1653 1.74125,2.33061 2.61187,3.49592 1.20984,1.618 3.49804,-0.093 2.2882,-1.71097 l 0,0 c -0.89965,-1.20219 -1.79929,-2.40438 -2.69894,-3.60657 -8.7832,-10.61064 -18.27333,-20.60569 -27.50983,-30.81853 -4.28834,-4.70548 -8.55345,-9.43564 -12.75203,-14.22057 -1.12067,-1.68099 -3.49795,-0.0961 -2.37729,1.58486 z"
           inkscape:connector-curvature="0" />
        <path
           style="color:#000000;fill:#000000;fill-opacity:1;fill-rule:nonzero;stroke:none;stroke-width:7.08661413;marker:none;visibility:visible;display:inline;overflow:visible;enable-background:accumulate"
           id="path3384"
           d="m 205.03107,212.742 c -2.08421,-2.52816 -4.91679,-4.1795 -7.75099,-5.72756 -3.58083,-1.81473 -7.39415,-2.74141 -11.37627,-2.96794 -2.01734,-0.10945 -2.17212,2.7435 -0.15478,2.85295 l 0,0 c 3.55935,0.18232 6.95943,1.01807 10.16536,2.6246 2.4434,1.32427 4.85754,2.71393 6.73939,4.80281 1.12067,1.68099 3.49795,0.0961 2.37729,-1.58486 z"
           inkscape:connector-curvature="0" />
        <path
           inkscape:connector-curvature="0"
           d="m 247.69505,260.53692 c 1.82013,1.95853 3.76995,3.72123 5.93179,5.29274 5.68314,3.38609 12.32874,4.21978 18.82588,4.33462 2.01994,0.0386 1.9654,2.89519 -0.0545,2.85663 l 0,0 c -7.08686,-0.14467 -14.30182,-1.10957 -20.45692,-4.88428 -2.27267,-1.66814 -4.34958,-3.50972 -6.26651,-5.5794 -1.42858,-1.42857 0.59173,-3.44888 2.0203,-2.02031 z"
           id="path3386"
           style="color:#000000;fill:#000000;fill-opacity:1;fill-rule:nonzero;stroke:none;stroke-width:7.08661413;marker:none;visibility:visible;display:inline;overflow:visible;enable-background:accumulate" />
      </g>
      <path
         style="color:#000000;fill:#000000;fill-opacity:1;fill-rule:nonzero;stroke:none;stroke-width:7.08661413;marker:none;visibility:visible;display:inline;overflow:visible;enable-background:accumulate"
         id="path3388"
         d="m 169.01683,219.86218 c 5.3876,0 10.7752,0 16.16282,0 4.70305,-0.0235 9.40341,-0.009 14.10524,0.0858 2.15799,0.0439 2.09167,2.90035 -0.0663,2.85647 l 0,0 c -4.67971,-0.0956 -9.358,-0.10772 -14.03894,-0.0851 -5.38761,0 -10.77521,0 -16.16281,0 -2.15848,0 -2.15848,-2.85714 0,-2.85714 z"
         inkscape:connector-curvature="0" />
    </g>
    <path
       inkscape:connector-curvature="0"
       id="path3406"
       d="m 429.87281,929.66947 c -1.73208,3.92023 4.324,5.15961 6.62947,7.25447 2.31953,1.69872 6.03225,2.79375 7.54464,4.91071 -1.42395,2.76261 -6.16879,4.33226 -5.24554,7.92411 3.0617,2.81768 7.83971,0.20769 11.54018,0.35714 2.43578,0.11821 6.546,-1.80017 7.91646,-0.248 0.4172,5.7462 0.29466,11.62217 1.03444,17.41318 2.78572,3.60796 6.05523,-1.80336 8.5491,-3.25893 1.98874,-2.04885 2.70049,2.48497 3.59375,3.54911 2.92552,5.3076 5.24647,11.41795 10,15.35714 3.94,0.95316 6.50354,-4.15822 10,-4.50893 3.84438,4.32018 -0.29166,10.49213 0.75893,15.46875 2.82397,2.74771 6.9011,-0.78243 10.20089,-0.95982 1.60728,0.023 6.68688,-2.3659 5.80358,0.0223 -1.86514,4.82216 -4.6206,9.8104 -4.59822,15.067 2.50135,3.5485 6.29562,-1.3773 8.93346,-2.3176 3.3325,-1.8997 6.52959,-4.5921 9.66029,-6.4994 4.11749,3.9138 7.07888,9.7117 12.67857,11.7857 4.08067,-0.994 5.79615,-5.934 8.86161,-8.5491 1.62994,-3.44884 3.3848,-0.1345 4.6875,1.5848 3.50081,4.2997 5.52675,10.0765 10.11161,13.3259 5.38203,0.5549 6.12858,-8.7013 11.51785,-7.9241 6.58469,4.8904 13.63483,9.6574 21.29465,12.7232 4.33449,0.3327 2.62455,-5.2046 2.00456,-7.7049 -0.16737,-2.1113 -1.62324,-4.6791 -1.15635,-6.6031 8.03842,-1.8388 15.79714,2.0762 23.63839,2.8348 5.25395,-0.9325 2.88115,-7.5633 2.87958,-11.12469 -0.25926,-3.3967 -0.62985,-6.76312 -0.62511,-10.14762 5.51526,1.9786 9.82701,6.2385 15.35714,7.83483 3.99249,-1.04454 1.98973,-6.60583 2.8125,-9.62054 0.42788,-5.02677 -0.18177,-10.74275 0.95982,-15.33482 6.66062,0.72539 13.0695,3.04807 19.0505,5.67584 3.40757,-2.77966 1.97571,-8.32147 2.36926,-12.37222 0.42358,-3.22121 -1.22253,-8.12317 0.42791,-10.24074 7.18416,-1.33465 14.43433,0.22686 21.56537,0.63572 3.70094,-1.9023 -0.96768,-6.3493 -1.54402,-9.15742 -0.5458,-2.34776 -3.19845,-5.63735 -1.82437,-7.75547 5.75801,-2.91125 12.55147,-3.64775 17.99107,-6.96428 0.29726,-4.99345 -6.65622,-2.10582 -9.68718,-2.8083 -14.70951,0.48626 -29.5593,-0.51188 -44.17443,1.29044 -11.61744,2.41553 -17.753,13.4717 -25.2079,21.42893 -11.41384,12.42761 -22.09241,25.73725 -34.27871,37.20946 -10.70168,9.01306 -28.00513,7.7579 -37.1875,-2.85714 -15.30198,-15.67127 -29.11113,-32.687 -44.04018,-48.79464 -8.67709,-9.27681 -22.31752,-7.76334 -33.83904,-8.12221 -12.04024,0.0563 -24.22469,-0.63415 -36.17327,-0.10825 l -0.65964,0.274 -0.13162,0.0547 z"
       style="color:#000000;fill:#949494;fill-opacity:1;fill-rule:nonzero;stroke:none;stroke-width:7.08661413;marker:none;visibility:visible;display:inline;overflow:visible;enable-background:accumulate" />
    <path
       inkscape:connector-curvature="0"
       id="path3408"
       d="m 634.33584,864.14089 c -8.07661,3.83904 -14.98437,9.81233 -22.83482,14.04017 -5.01193,-2.62875 -8.89275,-7.17298 -13.86161,-9.64285 -4.02297,2.73521 -4.31142,9.33422 -8.57143,11.96428 -6.79036,-2.86618 -11.83006,-9.67239 -19.35268,-10.9375 -7.13421,1.468 -12.48206,8.00727 -19.375,9.73215 -4.55235,-2.54607 -8.14379,-7.00239 -11.34174,-11.02682 -3.50956,-1.13772 -5.57692,3.96262 -8.6012,5.3216 -4.5415,3.31176 -9.07182,7.06468 -13.91867,9.56682 -4.29062,-3.51835 -5.59421,-9.34076 -9.08482,-13.32589 -4.48291,1.04344 -7.40655,5.55461 -11.16433,8.10615 -2.31381,1.4417 -4.69566,4.97877 -7.27317,5.01885 -5.44222,-3.43381 -9.96044,-8.12823 -14.46428,-12.45536 -4.20999,1.93303 -6.36792,6.9866 -9.48116,10.37784 -1.18651,1.4226 -2.06016,3.37888 -2.9742,4.82306 -4.86301,-1.55108 -8.90134,-4.82417 -13.35499,-7.04554 -4.24381,0.92282 -2.53932,6.79387 -3.28014,9.94677 -0.29199,2.10045 0.56663,6.37268 -2.82915,5.04519 -5.3909,-0.30811 -10.90154,-2.26368 -16.21457,-1.79452 -3.28213,2.12498 0.5912,6.26932 1.48242,8.87042 0.42424,1.38253 3.44544,3.41821 0.71429,4.10714 -4.48562,2.27781 -9.84206,2.88999 -13.90625,5.80357 -0.18464,4.9059 6.63381,2.15445 9.66438,2.9467 16.92997,0.52427 34.05743,-0.15809 50.82669,1.51759 7.52936,2.04073 13.29146,7.38748 17.73629,13.65285 12.93527,14.63607 25.66392,29.53055 39.38424,43.42304 6.45535,5.90133 15.25621,8.46214 23.90568,7.79536 11.25439,-0.44808 23.19266,1.4404 33.8845,-2.81768 11.27342,-6.18123 18.39353,-17.49277 27.20808,-26.48957 9.26815,-9.98625 17.95835,-20.49432 27.32317,-30.43007 8.16023,-7.47007 20.25959,-5.46356 30.42356,-6.19463 12.59946,-0.39198 25.3683,-3e-4 37.86098,-0.86357 3.98326,-3.41619 -3.93504,-5.14003 -6.21306,-6.65004 -3.46238,-1.89305 -7.70806,-3.36826 -10.5313,-5.88998 0.89615,-6.27477 4.21464,-12.48639 3.66072,-18.79464 -2.99699,-2.80148 -7.31242,0.71182 -10.69822,1.14618 -3.39191,0.79517 -7.1485,3.03609 -10.39553,2.84935 -5.32338,-4.98903 -9.29723,-11.70636 -15.49107,-15.84821 -4.11028,-0.10261 -5.11584,5.76457 -7.99108,8.10268 -0.94487,2.08919 -2.23455,1.15715 -2.99107,-0.53572 -4.75603,-5.35369 -10.32875,-10.70145 -17.03125,-13.41517 -0.27859,-0.0699 -0.56895,-0.0505 -0.84821,0 z"
       style="color:#000000;fill:#c8c8c8;fill-opacity:1;fill-rule:nonzero;stroke:none;stroke-width:7.08661413;marker:none;visibility:visible;display:inline;overflow:visible;enable-background:accumulate" />
    <g
       transform="matrix(-1,0,0,-1,749.65996,1201.1667)"
       id="g3410">
      <g
         id="g3412">
        <path
           style="color:#000000;fill:#000000;fill-opacity:1;fill-rule:nonzero;stroke:none;stroke-width:7.08661413;marker:none;visibility:visible;display:inline;overflow:visible;enable-background:accumulate"
           id="path3414"
           d="m 323.83358,270.25585 c -9.4863,0 -18.9726,0 -28.4589,0 -8.08934,0.0262 -16.17739,0.004 -24.26617,-0.0854 -2.02018,-0.0223 -2.05174,2.83465 -0.0316,2.85697 l 0,0 c 8.0993,0.0894 16.19786,0.11196 24.29773,0.0855 9.4863,0 18.9726,0 28.4589,0 2.02031,0 2.02031,-2.85714 0,-2.85714 z"
           inkscape:connector-curvature="0" />
        <path
           style="color:#000000;fill:#000000;fill-opacity:1;fill-rule:nonzero;stroke:none;stroke-width:7.08661413;marker:none;visibility:visible;display:inline;overflow:visible;enable-background:accumulate"
           id="path3416"
           d="m 202.99555,214.12522 c 4.24845,4.92935 8.63348,9.74945 13.01756,14.56022 9.20316,10.18155 18.66868,20.13803 27.42046,30.71564 0.87062,1.1653 1.74125,2.33061 2.61187,3.49592 1.20984,1.618 3.49804,-0.093 2.2882,-1.71097 l 0,0 c -0.89965,-1.20219 -1.79929,-2.40438 -2.69894,-3.60657 -8.7832,-10.61064 -18.27333,-20.60569 -27.50983,-30.81853 -4.28834,-4.70548 -8.55345,-9.43564 -12.75203,-14.22057 -1.12067,-1.68099 -3.49795,-0.0961 -2.37729,1.58486 z"
           inkscape:connector-curvature="0" />
        <path
           style="color:#000000;fill:#000000;fill-opacity:1;fill-rule:nonzero;stroke:none;stroke-width:7.08661413;marker:none;visibility:visible;display:inline;overflow:visible;enable-background:accumulate"
           id="path3418"
           d="m 205.03107,212.742 c -2.08421,-2.52816 -4.91679,-4.1795 -7.75099,-5.72756 -3.58083,-1.81473 -7.39415,-2.74141 -11.37627,-2.96794 -2.01734,-0.10945 -2.17212,2.7435 -0.15478,2.85295 l 0,0 c 3.55935,0.18232 6.95943,1.01807 10.16536,2.6246 2.4434,1.32427 4.85754,2.71393 6.73939,4.80281 1.12067,1.68099 3.49795,0.0961 2.37729,-1.58486 z"
           inkscape:connector-curvature="0" />
        <path
           inkscape:connector-curvature="0"
           d="m 247.69505,260.53692 c 1.82013,1.95853 3.76995,3.72123 5.93179,5.29274 5.68314,3.38609 12.32874,4.21978 18.82588,4.33462 2.01994,0.0386 1.9654,2.89519 -0.0545,2.85663 l 0,0 c -7.08686,-0.14467 -14.30182,-1.10957 -20.45692,-4.88428 -2.27267,-1.66814 -4.34958,-3.50972 -6.26651,-5.5794 -1.42858,-1.42857 0.59173,-3.44888 2.0203,-2.02031 z"
           id="path3420"
           style="color:#000000;fill:#000000;fill-opacity:1;fill-rule:nonzero;stroke:none;stroke-width:7.08661413;marker:none;visibility:visible;display:inline;overflow:visible;enable-background:accumulate" />
      </g>
      <g
         id="g3422"
         transform="matrix(-1,0,0,1,369.65996,0)">
        <path
           inkscape:connector-curvature="0"
           d="m 323.83358,270.25585 c -9.4863,0 -18.9726,0 -28.4589,0 -8.08934,0.0262 -16.17739,0.004 -24.26617,-0.0854 -2.02018,-0.0223 -2.05174,2.83465 -0.0316,2.85697 l 0,0 c 8.0993,0.0894 16.19786,0.11196 24.29773,0.0855 9.4863,0 18.9726,0 28.4589,0 2.02031,0 2.02031,-2.85714 0,-2.85714 z"
           id="path3424"
           style="color:#000000;fill:#000000;fill-opacity:1;fill-rule:nonzero;stroke:none;stroke-width:7.08661413;marker:none;visibility:visible;display:inline;overflow:visible;enable-background:accumulate" />
        <path
           inkscape:connector-curvature="0"
           d="m 202.99555,214.12522 c 4.24845,4.92935 8.63348,9.74945 13.01756,14.56022 9.20316,10.18155 18.66868,20.13803 27.42046,30.71564 0.87062,1.1653 1.74125,2.33061 2.61187,3.49592 1.20984,1.618 3.49804,-0.093 2.2882,-1.71097 l 0,0 c -0.89965,-1.20219 -1.79929,-2.40438 -2.69894,-3.60657 -8.7832,-10.61064 -18.27333,-20.60569 -27.50983,-30.81853 -4.28834,-4.70548 -8.55345,-9.43564 -12.75203,-14.22057 -1.12067,-1.68099 -3.49795,-0.0961 -2.37729,1.58486 z"
           id="path3426"
           style="color:#000000;fill:#000000;fill-opacity:1;fill-rule:nonzero;stroke:none;stroke-width:7.08661413;marker:none;visibility:visible;display:inline;overflow:visible;enable-background:accumulate" />
        <path
           inkscape:connector-curvature="0"
           d="m 205.03107,212.742 c -2.08421,-2.52816 -4.91679,-4.1795 -7.75099,-5.72756 -3.58083,-1.81473 -7.39415,-2.74141 -11.37627,-2.96794 -2.01734,-0.10945 -2.17212,2.7435 -0.15478,2.85295 l 0,0 c 3.55935,0.18232 6.95943,1.01807 10.16536,2.6246 2.4434,1.32427 4.85754,2.71393 6.73939,4.80281 1.12067,1.68099 3.49795,0.0961 2.37729,-1.58486 z"
           id="path3428"
           style="color:#000000;fill:#000000;fill-opacity:1;fill-rule:nonzero;stroke:none;stroke-width:7.08661413;marker:none;visibility:visible;display:inline;overflow:visible;enable-background:accumulate" />
        <path
           style="color:#000000;fill:#000000;fill-opacity:1;fill-rule:nonzero;stroke:none;stroke-width:7.08661413;marker:none;visibility:visible;display:inline;overflow:visible;enable-background:accumulate"
           id="path3430"
           d="m 247.69505,260.53692 c 1.82013,1.95853 3.76995,3.72123 5.93179,5.29274 5.68314,3.38609 12.32874,4.21978 18.82588,4.33462 2.01994,0.0386 1.9654,2.89519 -0.0545,2.85663 l 0,0 c -7.08686,-0.14467 -14.30182,-1.10957 -20.45692,-4.88428 -2.27267,-1.66814 -4.34958,-3.50972 -6.26651,-5.5794 -1.42858,-1.42857 0.59173,-3.44888 2.0203,-2.02031 z"
           inkscape:connector-curvature="0" />
      </g>
    </g>
    <g
       transform="matrix(-1,0,0,-1,749.65996,1201.1667)"
       id="g3432">
      <g
         id="g3434"
         transform="translate(14,16)">
        <path
           inkscape:connector-curvature="0"
           d="m 323.83358,270.25585 c -9.4863,0 -18.9726,0 -28.4589,0 -8.08934,0.0262 -16.17739,0.004 -24.26617,-0.0854 -2.02018,-0.0223 -2.05174,2.83465 -0.0316,2.85697 l 0,0 c 8.0993,0.0894 16.19786,0.11196 24.29773,0.0855 9.4863,0 18.9726,0 28.4589,0 2.02031,0 2.02031,-2.85714 0,-2.85714 z"
           id="path3436"
           style="color:#000000;fill:#000000;fill-opacity:1;fill-rule:nonzero;stroke:none;stroke-width:7.08661413;marker:none;visibility:visible;display:inline;overflow:visible;enable-background:accumulate" />
        <path
           inkscape:connector-curvature="0"
           d="m 202.99555,214.12522 c 4.24845,4.92935 8.63348,9.74945 13.01756,14.56022 9.20316,10.18155 18.66868,20.13803 27.42046,30.71564 0.87062,1.1653 1.74125,2.33061 2.61187,3.49592 1.20984,1.618 3.49804,-0.093 2.2882,-1.71097 l 0,0 c -0.89965,-1.20219 -1.79929,-2.40438 -2.69894,-3.60657 -8.7832,-10.61064 -18.27333,-20.60569 -27.50983,-30.81853 -4.28834,-4.70548 -8.55345,-9.43564 -12.75203,-14.22057 -1.12067,-1.68099 -3.49795,-0.0961 -2.37729,1.58486 z"
           id="path3438"
           style="color:#000000;fill:#000000;fill-opacity:1;fill-rule:nonzero;stroke:none;stroke-width:7.08661413;marker:none;visibility:visible;display:inline;overflow:visible;enable-background:accumulate" />
        <path
           inkscape:connector-curvature="0"
           d="m 205.03107,212.742 c -2.08421,-2.52816 -4.91679,-4.1795 -7.75099,-5.72756 -3.58083,-1.81473 -7.39415,-2.74141 -11.37627,-2.96794 -2.01734,-0.10945 -2.17212,2.7435 -0.15478,2.85295 l 0,0 c 3.55935,0.18232 6.95943,1.01807 10.16536,2.6246 2.4434,1.32427 4.85754,2.71393 6.73939,4.80281 1.12067,1.68099 3.49795,0.0961 2.37729,-1.58486 z"
           id="path3440"
           style="color:#000000;fill:#000000;fill-opacity:1;fill-rule:nonzero;stroke:none;stroke-width:7.08661413;marker:none;visibility:visible;display:inline;overflow:visible;enable-background:accumulate" />
        <path
           style="color:#000000;fill:#000000;fill-opacity:1;fill-rule:nonzero;stroke:none;stroke-width:7.08661413;marker:none;visibility:visible;display:inline;overflow:visible;enable-background:accumulate"
           id="path3442"
           d="m 247.69505,260.53692 c 1.82013,1.95853 3.76995,3.72123 5.93179,5.29274 5.68314,3.38609 12.32874,4.21978 18.82588,4.33462 2.01994,0.0386 1.9654,2.89519 -0.0545,2.85663 l 0,0 c -7.08686,-0.14467 -14.30182,-1.10957 -20.45692,-4.88428 -2.27267,-1.66814 -4.34958,-3.50972 -6.26651,-5.5794 -1.42858,-1.42857 0.59173,-3.44888 2.0203,-2.02031 z"
           inkscape:connector-curvature="0" />
      </g>
      <g
         transform="matrix(-1,0,0,1,355.65996,16)"
         id="g3444">
        <path
           style="color:#000000;fill:#000000;fill-opacity:1;fill-rule:nonzero;stroke:none;stroke-width:7.08661413;marker:none;visibility:visible;display:inline;overflow:visible;enable-background:accumulate"
           id="path3446"
           d="m 323.83358,270.25585 c -9.4863,0 -18.9726,0 -28.4589,0 -8.08934,0.0262 -16.17739,0.004 -24.26617,-0.0854 -2.02018,-0.0223 -2.05174,2.83465 -0.0316,2.85697 l 0,0 c 8.0993,0.0894 16.19786,0.11196 24.29773,0.0855 9.4863,0 18.9726,0 28.4589,0 2.02031,0 2.02031,-2.85714 0,-2.85714 z"
           inkscape:connector-curvature="0" />
        <path
           style="color:#000000;fill:#000000;fill-opacity:1;fill-rule:nonzero;stroke:none;stroke-width:7.08661413;marker:none;visibility:visible;display:inline;overflow:visible;enable-background:accumulate"
           id="path3448"
           d="m 202.99555,214.12522 c 4.24845,4.92935 8.63348,9.74945 13.01756,14.56022 9.20316,10.18155 18.66868,20.13803 27.42046,30.71564 0.87062,1.1653 1.74125,2.33061 2.61187,3.49592 1.20984,1.618 3.49804,-0.093 2.2882,-1.71097 l 0,0 c -0.89965,-1.20219 -1.79929,-2.40438 -2.69894,-3.60657 -8.7832,-10.61064 -18.27333,-20.60569 -27.50983,-30.81853 -4.28834,-4.70548 -8.55345,-9.43564 -12.75203,-14.22057 -1.12067,-1.68099 -3.49795,-0.0961 -2.37729,1.58486 z"
           inkscape:connector-curvature="0" />
        <path
           style="color:#000000;fill:#000000;fill-opacity:1;fill-rule:nonzero;stroke:none;stroke-width:7.08661413;marker:none;visibility:visible;display:inline;overflow:visible;enable-background:accumulate"
           id="path3450"
           d="m 205.03107,212.742 c -2.08421,-2.52816 -4.91679,-4.1795 -7.75099,-5.72756 -3.58083,-1.81473 -7.39415,-2.74141 -11.37627,-2.96794 -2.01734,-0.10945 -2.17212,2.7435 -0.15478,2.85295 l 0,0 c 3.55935,0.18232 6.95943,1.01807 10.16536,2.6246 2.4434,1.32427 4.85754,2.71393 6.73939,4.80281 1.12067,1.68099 3.49795,0.0961 2.37729,-1.58486 z"
           inkscape:connector-curvature="0" />
        <path
           inkscape:connector-curvature="0"
           d="m 247.69505,260.53692 c 1.82013,1.95853 3.76995,3.72123 5.93179,5.29274 5.68314,3.38609 12.32874,4.21978 18.82588,4.33462 2.01994,0.0386 1.9654,2.89519 -0.0545,2.85663 l 0,0 c -7.08686,-0.14467 -14.30182,-1.10957 -20.45692,-4.88428 -2.27267,-1.66814 -4.34958,-3.50972 -6.26651,-5.5794 -1.42858,-1.42857 0.59173,-3.44888 2.0203,-2.02031 z"
           id="path3452"
           style="color:#000000;fill:#000000;fill-opacity:1;fill-rule:nonzero;stroke:none;stroke-width:7.08661413;marker:none;visibility:visible;display:inline;overflow:visible;enable-background:accumulate" />
      </g>
      <path
         style="color:#000000;fill:#000000;fill-opacity:1;fill-rule:nonzero;stroke:none;stroke-width:7.08661413;marker:none;visibility:visible;display:inline;overflow:visible;enable-background:accumulate"
         id="path3454"
         d="m 169.01683,219.86218 c 5.3876,0 10.7752,0 16.16282,0 4.70305,-0.0235 9.40341,-0.009 14.10524,0.0858 2.15799,0.0439 2.09167,2.90035 -0.0663,2.85647 l 0,0 c -4.67971,-0.0956 -9.358,-0.10772 -14.03894,-0.0851 -5.38761,0 -10.77521,0 -16.16281,0 -2.15848,0 -2.15848,-2.85714 0,-2.85714 z"
         inkscape:connector-curvature="0" />
    </g>
    <text
       xml:space="preserve"
       style="font-style:normal;font-variant:normal;font-weight:bold;font-stretch:normal;line-height:0%;font-family:Arial;-inkscape-font-specification:'Sans Bold';text-align:start;letter-spacing:0px;word-spacing:0px;text-anchor:start;fill:#000000;fill-opacity:1;stroke:none"
       x="648.57141"
       y="907.79077"
       id="text4356"><tspan
         sodipodi:role="line"
         id="tspan4358"
         x="648.57141"
         y="907.79077"
         style="font-weight:bold;font-size:28px;line-height:1.25;-inkscape-font-specification:'Sans Bold';fill:#00a000;fill-opacity:1">GOOD</tspan></text>
    <g
       id="g4460"
       style="color:#000000;fill:#005300;fill-opacity:1;fill-rule:nonzero;stroke:none;marker:none;visibility:visible;display:inline;overflow:visible;enable-background:accumulate"
       transform="translate(510,500)">
      <path
         inkscape:connector-curvature="0"
         d="m 185.74033,467.94837 c -2.80265,-0.46702 -5.62295,-0.76418 -8.46256,-0.85138 -3.56378,0.11444 -7.24342,1.00486 -9.4496,4.06781 -0.41202,0.57202 -0.67072,1.24016 -1.00608,1.86024 -1.01083,3.27328 -0.75411,6.83091 1.23279,9.73038 1.52268,2.22203 2.62584,2.66473 4.83343,4.18464 1.15228,0.44588 2.26447,1.01391 3.45685,1.33764 4.88586,1.3265 10.47966,0.81986 14.56505,-2.38736 0.87822,-0.68945 1.54339,-1.61381 2.31508,-2.42072 0.46871,-0.95249 1.09225,-1.84337 1.40613,-2.85748 0.91526,-2.95712 0.2327,-5.91571 -1.85179,-8.18623 -1.87391,-2.04116 -2.858,-2.17896 -5.33974,-3.30714 -4.32144,-0.97222 -2.14703,-0.67661 -6.52152,-0.89928 -2.01698,-0.11593 -1.85303,-2.96837 0.16395,-2.85243 l 0,0 c 5.06293,0.31996 2.53449,-0.0594 7.58054,1.16954 2.99199,1.46388 4.34923,1.72917 6.5356,4.3686 2.60148,3.14056 3.32217,7.16687 1.97052,11.01998 -0.44494,1.26837 -1.27339,2.36758 -1.91008,3.55136 -0.97647,0.9645 -1.82983,2.0721 -2.9294,2.89349 -4.83477,3.61164 -11.36562,4.21455 -17.04362,2.5612 -1.3993,-0.40746 -2.69729,-1.10498 -4.04593,-1.65746 -2.73783,-1.97514 -3.91853,-2.42512 -5.76832,-5.29766 -1.76997,-2.74859 -2.45821,-6.27944 -1.95155,-9.49638 0.15466,-0.982 0.54583,-1.91182 0.81874,-2.86773 0.47979,-0.81246 0.8641,-1.68949 1.43937,-2.43739 2.78998,-3.62724 7.2269,-4.82149 11.59127,-4.93329 3.04049,0.10154 6.06686,0.40556 9.06383,0.93522 1.95998,0.48999 1.26702,3.26183 -0.69296,2.77183 z"
         id="path4438"
         style="color:#000000;fill:#005300;fill-opacity:1;fill-rule:nonzero;stroke:none;stroke-width:7.08661413;marker:none;visibility:visible;display:inline;overflow:visible;enable-background:accumulate" />
      <path
         inkscape:connector-curvature="0"
         d="m 175.75707,480.92889 c 1.93064,1.23145 4.25417,1.18307 6.44181,1.00272 1.86278,-0.25454 3.52219,-1.06444 5.18757,-1.87649 1.81913,-0.87886 3.06202,1.69378 1.24289,2.57264 l 0,0 c -1.99698,0.95701 -3.99023,1.88952 -6.22315,2.15346 -2.91161,0.18924 -6.70264,0.2768 -8.84666,-2.1521 -0.25577,-0.28976 -0.38286,-0.67151 -0.57429,-1.00727 -0.49,-1.95998 2.28184,-2.65294 2.77183,-0.69296 z"
         id="path4450"
         style="color:#000000;fill:#005300;fill-opacity:1;fill-rule:nonzero;stroke:none;stroke-width:7.08661413;marker:none;visibility:visible;display:inline;overflow:visible;enable-background:accumulate" />
      <path
         inkscape:connector-curvature="0"
         d="m 183.55605,473.07647 c 0.18049,0.0799 0.98775,-0.0618 0.87095,-0.40691 -0.0181,-0.0535 -0.0927,0.0645 -0.13901,0.0967 -0.24748,0.48002 0.21712,1.4207 0.75696,1.30012 -1.53483,1.31375 -3.39275,-0.85683 -1.85792,-2.17058 l 0,0 c 1.72885,-1.23066 3.88118,-0.92112 3.85406,1.63446 -0.67365,1.67284 -1.60634,2.44725 -3.48504,2.40336 -2.02031,0 -2.02031,-2.85714 0,-2.85714 z"
         id="path4454"
         style="color:#000000;fill:#005300;fill-opacity:1;fill-rule:nonzero;stroke:none;stroke-width:7.08661413;marker:none;visibility:visible;display:inline;overflow:visible;enable-background:accumulate" />
      <path
         inkscape:connector-curvature="0"
         d="m 176.81175,474.37694 c -1.21885,0.0218 -0.50969,0.30838 0.01,-0.56085 0.10122,-0.16937 0.0582,-0.39029 0.0873,-0.58544 0.62782,0.73091 1.24409,-0.0331 -1.12076,0.80476 -0.16631,0.38063 -0.48627,0.17147 -0.62402,0.12278 0.52146,0.25654 1.1728,-0.12143 1.39271,-0.52996 0.0207,-0.0385 -0.009,-0.13356 0.034,-0.12678 0.0556,0.009 0.0572,0.0971 0.0858,0.14557 0.007,-0.0183 0.0149,-0.0366 0.0224,-0.0549 0.0373,0.0246 0.0747,0.0492 0.11202,0.0738 1.5589,1.28509 -0.2585,3.48971 -1.8174,2.20461 l 0,0 c -0.59422,-0.51708 -0.29428,-0.21208 -0.87093,-0.94252 -0.60431,-1.27276 -0.68895,-2.78041 0.88912,-3.46417 0.31436,-0.13621 0.68499,-0.0169 1.02749,-0.0254 1.68134,0.6856 2.81697,2.04196 2.27021,3.94068 -0.56448,0.3022 -1.07531,0.73965 -1.69345,0.90658 -0.70433,0.19021 -2.15089,-1.517 -2.37165,-2.02341 -0.0556,-0.414 -0.27264,-0.83788 -0.16694,-1.24201 0.41818,-1.59897 2.16643,-1.56852 3.42726,-1.41514 1.95999,0.48999 1.26703,3.26183 -0.69296,2.77183 z"
         id="path4458"
         style="color:#000000;fill:#005300;fill-opacity:1;fill-rule:nonzero;stroke:none;stroke-width:7.08661413;marker:none;visibility:visible;display:inline;overflow:visible;enable-background:accumulate" />
    </g>
    <g
       id="g4378"
       transform="matrix(1.8917382,0,0,1.8917382,-159.7094,286.61808)">
      <path
         inkscape:connector-curvature="0"
         d="m 208.16268,306.76505 c -1.2286,-2.54934 -3.55428,-4.59097 -6.02297,-5.91812 -0.94337,-0.50715 -1.95667,-0.87179 -2.93501,-1.30768 -7.13406,-2.26647 -14.74944,-1.85251 -21.73945,0.78205 -1.36161,0.5132 -2.64677,1.20995 -3.97016,1.81492 -4.27202,2.6518 -2.31167,1.245 -5.9226,4.16189 -1.57574,1.26439 -3.36386,-0.96404 -1.78812,-2.22843 l 0,0 c 3.99847,-3.18904 1.8356,-1.65748 6.53024,-4.53533 1.44097,-0.64922 2.84121,-1.39773 4.32291,-1.94767 6.23632,-2.31462 13.08725,-3.05959 19.64279,-1.796 1.39416,0.26873 2.735,0.76375 4.1025,1.14563 1.11379,0.51102 2.26886,0.94029 3.34137,1.53307 2.96575,1.63918 5.65686,4.13791 7.09129,7.23456 0.75033,1.8758 -1.90246,2.93692 -2.65279,1.06111 z"
         id="path4372"
         style="color:#000000;fill:#000000;fill-opacity:1;fill-rule:nonzero;stroke:none;stroke-width:7.08661413;marker:none;visibility:visible;display:inline;overflow:visible;enable-background:accumulate" />
      <path
         inkscape:connector-curvature="0"
         d="m 211.20171,305.95433 c 0.39878,-2.30752 0.2549,-4.64299 -0.0968,-6.94326 -0.13982,-0.73911 -0.15095,-0.84492 -0.3077,-1.52078 -0.0354,-0.15247 -0.0701,-0.30525 -0.11347,-0.45565 -0.01,-0.0339 -0.0725,-0.11832 -0.0454,-0.0957 0.34137,0.28552 0.55012,0.88721 0.99514,0.89003 0.61297,0.004 1.07885,-0.58228 1.61827,-0.87342 -0.0242,1.39963 -0.0274,2.80051 -0.0277,4.20077 -0.0426,1.7934 0.10509,3.59522 -0.0899,5.38055 -0.33671,2.2134 -1.60322,2.72338 -3.66163,2.93735 -2.89087,-0.0748 -5.76361,-0.46242 -8.65766,-0.43032 -1.39427,0.0753 -0.7553,0.0246 -1.918,0.13738 -2.01118,0.19175 -2.28235,-2.6525 -0.27117,-2.84424 l 0,0 c 1.32517,-0.12447 0.60406,-0.0696 2.1644,-0.15017 2.81456,-0.0184 5.61197,0.28413 8.42004,0.44228 0.22787,-0.0169 0.45544,-0.0388 0.68363,-0.0507 0.40593,-0.0212 0.13646,-0.038 0.13296,0.1995 -0.002,0.12747 0.65131,-0.96005 0.27116,-0.58579 0.23567,-1.65962 -0.0283,-3.36615 0.0691,-5.03641 3.3e-4,-1.62322 -0.0453,-3.25473 0.10782,-4.87204 0.57043,-0.41932 1.00838,-1.17351 1.7113,-1.25795 1.41664,-0.17019 1.5631,2.85373 1.74386,3.55782 0.39405,2.62862 0.54343,5.29809 0.0735,7.93105 -0.39621,1.98107 -3.19787,1.42074 -2.80166,-0.56033 z"
         id="path4374"
         style="color:#000000;fill:#000000;fill-opacity:1;fill-rule:nonzero;stroke:none;stroke-width:7.08661413;marker:none;visibility:visible;display:inline;overflow:visible;enable-background:accumulate" />
      <path
         inkscape:connector-curvature="0"
         d="m 175.74677,308.80456 c -2.44688,-0.10707 -4.87251,-0.43475 -7.32679,-0.43219 -2.1014,0.0589 -4.19978,0.19735 -6.29623,0.34936 -2.78048,0.25128 -2.39156,-1.69561 -1.70237,-3.51189 1.0643,-2.35237 1.91642,-4.78511 2.98495,-7.13663 0.10361,-0.2486 0.20721,-0.4972 0.31082,-0.7458 0.77877,-1.86417 3.41511,-0.76282 2.63634,1.10136 l 0,0 c -0.11545,0.27574 -0.23089,0.55148 -0.34633,0.82722 -1.04645,2.29909 -1.87447,4.68099 -2.91926,6.97998 -0.58818,1.50076 -0.052,0.61394 -0.83618,-0.014 -0.67687,-0.542 -1.6241,-0.21143 -0.33455,-0.34988 2.16633,-0.15701 4.33472,-0.30022 6.50631,-0.35684 2.45304,0.008 4.87974,0.29664 7.32329,0.43219 2.0203,0 2.0203,2.85714 0,2.85714 z"
         id="path4376"
         style="color:#000000;fill:#000000;fill-opacity:1;fill-rule:nonzero;stroke:none;stroke-width:7.08661413;marker:none;visibility:visible;display:inline;overflow:visible;enable-background:accumulate" />
    </g>
  </g>
</svg>
